<mxfile host="app.diagrams.net" modified="2024-07-08T09:08:44.935Z" agent="Mozilla/5.0 (Windows NT 10.0; Win64; x64) AppleWebKit/537.36 (KHTML, like Gecko) Chrome/126.0.0.0 Safari/537.36" etag="guMrFr2_C-KeOL3smbRv" version="24.6.4" type="google">
  <diagram name="Page-1" id="XJ8Cayha9wcwXk5fq0Du">
    <mxGraphModel grid="1" page="1" gridSize="10" guides="1" tooltips="1" connect="1" arrows="1" fold="1" pageScale="1" pageWidth="850" pageHeight="1100" math="0" shadow="0">
      <root>
        <mxCell id="0" />
        <mxCell id="1" parent="0" />
        <mxCell id="6qeob9FpQTtYeEUNTeNv-73" style="edgeStyle=orthogonalEdgeStyle;rounded=0;orthogonalLoop=1;jettySize=auto;html=1;" edge="1" parent="1" source="6qeob9FpQTtYeEUNTeNv-70" target="6qeob9FpQTtYeEUNTeNv-37">
          <mxGeometry relative="1" as="geometry">
            <Array as="points">
              <mxPoint x="1323" y="-805" />
              <mxPoint x="1215" y="-805" />
            </Array>
          </mxGeometry>
        </mxCell>
        <mxCell id="6qeob9FpQTtYeEUNTeNv-70" value="" style="whiteSpace=wrap;html=1;aspect=fixed;" vertex="1" parent="1">
          <mxGeometry x="1283" y="-947" width="80" height="80" as="geometry" />
        </mxCell>
        <mxCell id="6qeob9FpQTtYeEUNTeNv-72" style="edgeStyle=orthogonalEdgeStyle;rounded=0;orthogonalLoop=1;jettySize=auto;html=1;" edge="1" parent="1" source="6qeob9FpQTtYeEUNTeNv-69" target="6qeob9FpQTtYeEUNTeNv-37">
          <mxGeometry relative="1" as="geometry">
            <Array as="points">
              <mxPoint x="945" y="-879" />
              <mxPoint x="945" y="-705" />
            </Array>
          </mxGeometry>
        </mxCell>
        <mxCell id="6qeob9FpQTtYeEUNTeNv-69" value="" style="whiteSpace=wrap;html=1;aspect=fixed;" vertex="1" parent="1">
          <mxGeometry x="971" y="-964" width="170" height="170" as="geometry" />
        </mxCell>
        <mxCell id="gSVBstGjE9nukzaFXjFp-51" value="" style="rounded=0;whiteSpace=wrap;html=1;" vertex="1" parent="1">
          <mxGeometry x="1030" y="4640" width="885" height="410" as="geometry" />
        </mxCell>
        <mxCell id="gSVBstGjE9nukzaFXjFp-49" value="" style="rounded=0;whiteSpace=wrap;html=1;" vertex="1" parent="1">
          <mxGeometry x="1520" y="4700" width="360" height="300" as="geometry" />
        </mxCell>
        <mxCell id="gSVBstGjE9nukzaFXjFp-28" style="edgeStyle=orthogonalEdgeStyle;rounded=0;orthogonalLoop=1;jettySize=auto;html=1;" edge="1" parent="1" source="gSVBstGjE9nukzaFXjFp-26" target="gSVBstGjE9nukzaFXjFp-25">
          <mxGeometry relative="1" as="geometry" />
        </mxCell>
        <mxCell id="gSVBstGjE9nukzaFXjFp-26" value="" style="rounded=0;whiteSpace=wrap;html=1;" vertex="1" parent="1">
          <mxGeometry x="237.75" y="4520" width="400" height="730" as="geometry" />
        </mxCell>
        <mxCell id="JP8kJ2886w8WSLI2o2VG-222" value="" style="rounded=1;whiteSpace=wrap;html=1;" vertex="1" parent="1">
          <mxGeometry x="3060" y="2224.5" width="810" height="1035" as="geometry" />
        </mxCell>
        <mxCell id="JP8kJ2886w8WSLI2o2VG-102" value="" style="rounded=0;whiteSpace=wrap;html=1;" vertex="1" parent="1">
          <mxGeometry x="1990.75" y="2340" width="990" height="620" as="geometry" />
        </mxCell>
        <mxCell id="JP8kJ2886w8WSLI2o2VG-5" value="" style="rounded=1;whiteSpace=wrap;html=1;" vertex="1" parent="1">
          <mxGeometry x="1387" y="2310" width="433.75" height="600" as="geometry" />
        </mxCell>
        <mxCell id="lnbPMf65tQMJrt6chJXS-70" value="" style="rounded=0;whiteSpace=wrap;html=1;" vertex="1" parent="1">
          <mxGeometry x="30" y="3450" width="1040" height="900" as="geometry" />
        </mxCell>
        <mxCell id="lnbPMf65tQMJrt6chJXS-74" style="edgeStyle=orthogonalEdgeStyle;rounded=0;orthogonalLoop=1;jettySize=auto;html=1;" edge="1" parent="1" source="lnbPMf65tQMJrt6chJXS-64" target="lnbPMf65tQMJrt6chJXS-68">
          <mxGeometry relative="1" as="geometry" />
        </mxCell>
        <mxCell id="lnbPMf65tQMJrt6chJXS-64" value="" style="rounded=1;whiteSpace=wrap;html=1;fillColor=#E6E6E6;" vertex="1" parent="1">
          <mxGeometry x="196.25" y="3470" width="710" height="860" as="geometry" />
        </mxCell>
        <mxCell id="lOT5QitQceJ5SUjbl__B-234" value="" style="rounded=0;whiteSpace=wrap;html=1;" vertex="1" parent="1">
          <mxGeometry x="1090" y="1090" width="1770" height="880" as="geometry" />
        </mxCell>
        <mxCell id="lOT5QitQceJ5SUjbl__B-127" value="" style="rounded=0;whiteSpace=wrap;html=1;" vertex="1" parent="1">
          <mxGeometry x="30" y="1070" width="960" height="1070" as="geometry" />
        </mxCell>
        <mxCell id="lOT5QitQceJ5SUjbl__B-72" value="" style="rounded=0;whiteSpace=wrap;html=1;" vertex="1" parent="1">
          <mxGeometry x="30" y="90" width="620" height="790" as="geometry" />
        </mxCell>
        <mxCell id="lOT5QitQceJ5SUjbl__B-1" value="&lt;font style=&quot;font-size: 24px;&quot;&gt;1 Pengumpulan Data&lt;/font&gt;&lt;div&gt;______________________________&lt;span style=&quot;background-color: initial;&quot;&gt;______________________________&lt;/span&gt;&lt;span style=&quot;background-color: initial;&quot;&gt;______________________________&lt;/span&gt;&lt;span style=&quot;background-color: initial;&quot;&gt;______________________________&lt;/span&gt;&lt;/div&gt;" style="text;html=1;align=center;verticalAlign=middle;whiteSpace=wrap;rounded=0;fontStyle=1" vertex="1" parent="1">
          <mxGeometry x="20" y="10" width="810" height="30" as="geometry" />
        </mxCell>
        <mxCell id="lOT5QitQceJ5SUjbl__B-2" value="&lt;b&gt;Proses Scraping&lt;/b&gt;" style="text;html=1;align=center;verticalAlign=middle;whiteSpace=wrap;rounded=0;" vertex="1" parent="1">
          <mxGeometry x="30" y="90" width="140" height="30" as="geometry" />
        </mxCell>
        <mxCell id="lOT5QitQceJ5SUjbl__B-8" value="&lt;font style=&quot;font-size: 16px;&quot;&gt;Kode&lt;i&gt;&amp;nbsp;&lt;/i&gt;Python&lt;/font&gt;" style="rounded=0;whiteSpace=wrap;html=1;fillColor=#dae8fc;strokeColor=#6c8ebf;" vertex="1" parent="1">
          <mxGeometry x="210" y="130" width="150" height="80" as="geometry" />
        </mxCell>
        <mxCell id="lOT5QitQceJ5SUjbl__B-9" value="Aktor" style="shape=umlActor;verticalLabelPosition=bottom;verticalAlign=top;html=1;outlineConnect=0;" vertex="1" parent="1">
          <mxGeometry x="70" y="140" width="30" height="60" as="geometry" />
        </mxCell>
        <mxCell id="lOT5QitQceJ5SUjbl__B-10" value="&lt;font style=&quot;font-size: 16px;&quot;&gt;Situs CDC&lt;/font&gt;" style="rounded=0;whiteSpace=wrap;html=1;fillColor=#dae8fc;strokeColor=#6c8ebf;" vertex="1" parent="1">
          <mxGeometry x="440" y="130" width="150" height="70" as="geometry" />
        </mxCell>
        <mxCell id="lOT5QitQceJ5SUjbl__B-14" value="" style="endArrow=classic;html=1;rounded=0;" edge="1" parent="1">
          <mxGeometry width="50" height="50" relative="1" as="geometry">
            <mxPoint x="90" y="250" as="sourcePoint" />
            <mxPoint x="280" y="250" as="targetPoint" />
          </mxGeometry>
        </mxCell>
        <mxCell id="lOT5QitQceJ5SUjbl__B-15" value="&lt;font style=&quot;font-size: 12px;&quot;&gt;Memasukkan&lt;/font&gt;&lt;div style=&quot;font-size: 12px;&quot;&gt;&lt;font style=&quot;font-size: 12px;&quot;&gt;User Agent&lt;/font&gt;&lt;/div&gt;" style="edgeLabel;html=1;align=center;verticalAlign=middle;resizable=0;points=[];" connectable="0" vertex="1" parent="lOT5QitQceJ5SUjbl__B-14">
          <mxGeometry x="-0.0435" y="1" relative="1" as="geometry">
            <mxPoint as="offset" />
          </mxGeometry>
        </mxCell>
        <mxCell id="lOT5QitQceJ5SUjbl__B-17" value="" style="endArrow=classic;html=1;rounded=0;entryX=-0.589;entryY=0.091;entryDx=0;entryDy=0;entryPerimeter=0;" edge="1" parent="1" target="lOT5QitQceJ5SUjbl__B-29">
          <mxGeometry width="50" height="50" relative="1" as="geometry">
            <mxPoint x="289" y="251" as="sourcePoint" />
            <mxPoint x="498.55500000000006" y="249.64" as="targetPoint" />
          </mxGeometry>
        </mxCell>
        <mxCell id="lOT5QitQceJ5SUjbl__B-18" value="&lt;font style=&quot;font-size: 12px;&quot;&gt;Request laman&lt;/font&gt;&lt;div style=&quot;font-size: 12px;&quot;&gt;&lt;font style=&quot;font-size: 12px;&quot;&gt;dataset NHANES&lt;/font&gt;&lt;/div&gt;" style="edgeLabel;html=1;align=center;verticalAlign=middle;resizable=0;points=[];" connectable="0" vertex="1" parent="lOT5QitQceJ5SUjbl__B-17">
          <mxGeometry x="-0.0435" y="1" relative="1" as="geometry">
            <mxPoint as="offset" />
          </mxGeometry>
        </mxCell>
        <mxCell id="lOT5QitQceJ5SUjbl__B-19" value="" style="endArrow=classic;html=1;rounded=0;exitX=-0.097;exitY=0.459;exitDx=0;exitDy=0;exitPerimeter=0;" edge="1" parent="1">
          <mxGeometry width="50" height="50" relative="1" as="geometry">
            <mxPoint x="517.1325000000003" y="280.00000000000006" as="sourcePoint" />
            <mxPoint x="287.86" y="280.66" as="targetPoint" />
          </mxGeometry>
        </mxCell>
        <mxCell id="lOT5QitQceJ5SUjbl__B-22" value="&lt;font style=&quot;font-size: 8px;&quot;&gt;HTML List dataset kategori:&lt;/font&gt;&lt;div style=&quot;font-size: 8px;&quot;&gt;&lt;font style=&quot;font-size: 8px;&quot;&gt;&lt;b style=&quot;font-size: 8px;&quot;&gt;Demografi, Laboratory, Dietary,&lt;/b&gt;&lt;/font&gt;&lt;/div&gt;&lt;div style=&quot;font-size: 8px;&quot;&gt;&lt;font style=&quot;font-size: 8px;&quot;&gt;&lt;b style=&quot;font-size: 8px;&quot;&gt;Examination, Questionnaire&lt;/b&gt;&lt;/font&gt;&lt;/div&gt;" style="shape=mxgraph.bpmn.data;labelPosition=center;verticalLabelPosition=bottom;align=center;verticalAlign=top;size=10;html=1;fontSize=8;" vertex="1" parent="1">
          <mxGeometry x="396.25" y="300" width="25" height="30" as="geometry" />
        </mxCell>
        <mxCell id="lOT5QitQceJ5SUjbl__B-25" value="" style="endArrow=none;dashed=1;html=1;rounded=0;" edge="1" parent="1" source="lOT5QitQceJ5SUjbl__B-22">
          <mxGeometry width="50" height="50" relative="1" as="geometry">
            <mxPoint x="410" y="300" as="sourcePoint" />
            <mxPoint x="410" y="280" as="targetPoint" />
          </mxGeometry>
        </mxCell>
        <mxCell id="lOT5QitQceJ5SUjbl__B-28" value="" style="rounded=0;whiteSpace=wrap;html=1;fillColor=#dae8fc;strokeColor=#6c8ebf;" vertex="1" parent="1">
          <mxGeometry x="281.25" y="210" width="7.5" height="590" as="geometry" />
        </mxCell>
        <mxCell id="lOT5QitQceJ5SUjbl__B-29" value="" style="rounded=0;whiteSpace=wrap;html=1;fillColor=#dae8fc;strokeColor=#6c8ebf;" vertex="1" parent="1">
          <mxGeometry x="520" y="200" width="7.5" height="560" as="geometry" />
        </mxCell>
        <mxCell id="lOT5QitQceJ5SUjbl__B-32" value="" style="endArrow=classic;html=1;rounded=0;edgeStyle=orthogonalEdgeStyle;" edge="1" parent="1">
          <mxGeometry width="50" height="50" relative="1" as="geometry">
            <mxPoint x="288.75" y="390" as="sourcePoint" />
            <mxPoint x="291.75" y="426" as="targetPoint" />
            <Array as="points">
              <mxPoint x="321.75" y="390" />
              <mxPoint x="321.75" y="426" />
            </Array>
          </mxGeometry>
        </mxCell>
        <mxCell id="lOT5QitQceJ5SUjbl__B-33" value="&lt;font style=&quot;font-size: 12px;&quot;&gt;Ekstraksi URL pengunduhan dan metadata setiap dataset&lt;/font&gt;" style="text;html=1;align=center;verticalAlign=middle;whiteSpace=wrap;rounded=0;" vertex="1" parent="1">
          <mxGeometry x="320" y="400" width="120" height="30" as="geometry" />
        </mxCell>
        <mxCell id="lOT5QitQceJ5SUjbl__B-35" value="" style="endArrow=classic;html=1;rounded=0;" edge="1" parent="1">
          <mxGeometry width="50" height="50" relative="1" as="geometry">
            <mxPoint x="290" y="480" as="sourcePoint" />
            <mxPoint x="521.25" y="480" as="targetPoint" />
          </mxGeometry>
        </mxCell>
        <mxCell id="lOT5QitQceJ5SUjbl__B-36" value="Melakukan Pengunduhan&lt;div&gt;Dataset&lt;/div&gt;" style="edgeLabel;html=1;align=center;verticalAlign=middle;resizable=0;points=[];" connectable="0" vertex="1" parent="lOT5QitQceJ5SUjbl__B-35">
          <mxGeometry x="-0.0295" relative="1" as="geometry">
            <mxPoint x="4" y="10" as="offset" />
          </mxGeometry>
        </mxCell>
        <mxCell id="lOT5QitQceJ5SUjbl__B-38" value="" style="endArrow=classic;html=1;rounded=0;" edge="1" parent="1">
          <mxGeometry width="50" height="50" relative="1" as="geometry">
            <mxPoint x="281.25" y="530" as="sourcePoint" />
            <mxPoint x="281.25" y="460" as="targetPoint" />
            <Array as="points">
              <mxPoint x="261.25" y="530" />
              <mxPoint x="231.25" y="530" />
              <mxPoint x="231.25" y="480" />
              <mxPoint x="231.25" y="460" />
            </Array>
          </mxGeometry>
        </mxCell>
        <mxCell id="lOT5QitQceJ5SUjbl__B-41" value="Untuk&amp;nbsp;&lt;div style=&quot;font-size: 8px;&quot;&gt;setiap dataset&lt;/div&gt;" style="edgeLabel;html=1;align=center;verticalAlign=middle;resizable=0;points=[];fontSize=8;" connectable="0" vertex="1" parent="lOT5QitQceJ5SUjbl__B-38">
          <mxGeometry x="-0.8962" relative="1" as="geometry">
            <mxPoint x="-21" y="10" as="offset" />
          </mxGeometry>
        </mxCell>
        <mxCell id="lOT5QitQceJ5SUjbl__B-39" value="Jeda setiap&lt;div&gt;request&lt;/div&gt;" style="points=[[0.145,0.145,0],[0.5,0,0],[0.855,0.145,0],[1,0.5,0],[0.855,0.855,0],[0.5,1,0],[0.145,0.855,0],[0,0.5,0]];shape=mxgraph.bpmn.event;html=1;verticalLabelPosition=bottom;labelBackgroundColor=#ffffff;verticalAlign=top;align=center;perimeter=ellipsePerimeter;outlineConnect=0;aspect=fixed;outline=standard;symbol=timer;fontSize=8;" vertex="1" parent="1">
          <mxGeometry x="200" y="480" width="20" height="20" as="geometry" />
        </mxCell>
        <mxCell id="lOT5QitQceJ5SUjbl__B-42" value="" style="endArrow=classic;html=1;rounded=0;exitX=-0.402;exitY=0.685;exitDx=0;exitDy=0;exitPerimeter=0;" edge="1" parent="1">
          <mxGeometry width="50" height="50" relative="1" as="geometry">
            <mxPoint x="515.735" y="510.0000000000001" as="sourcePoint" />
            <mxPoint x="288.75" y="510.4" as="targetPoint" />
          </mxGeometry>
        </mxCell>
        <mxCell id="lOT5QitQceJ5SUjbl__B-43" value="" style="endArrow=classic;html=1;rounded=0;" edge="1" parent="1">
          <mxGeometry width="50" height="50" relative="1" as="geometry">
            <mxPoint x="288.75" y="660" as="sourcePoint" />
            <mxPoint x="520" y="660" as="targetPoint" />
          </mxGeometry>
        </mxCell>
        <mxCell id="lOT5QitQceJ5SUjbl__B-44" value="Melakukan Request&lt;div&gt;HTML metadata&lt;/div&gt;" style="edgeLabel;html=1;align=center;verticalAlign=middle;resizable=0;points=[];" connectable="0" vertex="1" parent="lOT5QitQceJ5SUjbl__B-43">
          <mxGeometry x="-0.0295" relative="1" as="geometry">
            <mxPoint x="4" y="10" as="offset" />
          </mxGeometry>
        </mxCell>
        <mxCell id="lOT5QitQceJ5SUjbl__B-45" value="" style="endArrow=classic;html=1;rounded=0;exitX=-0.402;exitY=0.685;exitDx=0;exitDy=0;exitPerimeter=0;" edge="1" parent="1">
          <mxGeometry width="50" height="50" relative="1" as="geometry">
            <mxPoint x="515.75" y="690" as="sourcePoint" />
            <mxPoint x="288.75" y="690" as="targetPoint" />
          </mxGeometry>
        </mxCell>
        <mxCell id="lOT5QitQceJ5SUjbl__B-46" value="" style="endArrow=classic;html=1;rounded=0;" edge="1" parent="1">
          <mxGeometry width="50" height="50" relative="1" as="geometry">
            <mxPoint x="281.25" y="710" as="sourcePoint" />
            <mxPoint x="281.25" y="640" as="targetPoint" />
            <Array as="points">
              <mxPoint x="261.25" y="710" />
              <mxPoint x="231.25" y="710" />
              <mxPoint x="231.25" y="660" />
              <mxPoint x="231.25" y="640" />
            </Array>
          </mxGeometry>
        </mxCell>
        <mxCell id="lOT5QitQceJ5SUjbl__B-47" value="Untuk&amp;nbsp;&lt;div style=&quot;font-size: 8px;&quot;&gt;setiap dataset&lt;/div&gt;" style="edgeLabel;html=1;align=center;verticalAlign=middle;resizable=0;points=[];fontSize=8;" connectable="0" vertex="1" parent="lOT5QitQceJ5SUjbl__B-46">
          <mxGeometry x="-0.8962" relative="1" as="geometry">
            <mxPoint x="-21" y="10" as="offset" />
          </mxGeometry>
        </mxCell>
        <mxCell id="lOT5QitQceJ5SUjbl__B-48" value="Jeda setiap&lt;div&gt;request&lt;/div&gt;" style="points=[[0.145,0.145,0],[0.5,0,0],[0.855,0.145,0],[1,0.5,0],[0.855,0.855,0],[0.5,1,0],[0.145,0.855,0],[0,0.5,0]];shape=mxgraph.bpmn.event;html=1;verticalLabelPosition=bottom;labelBackgroundColor=#ffffff;verticalAlign=top;align=center;perimeter=ellipsePerimeter;outlineConnect=0;aspect=fixed;outline=standard;symbol=timer;fontSize=8;" vertex="1" parent="1">
          <mxGeometry x="200" y="660" width="20" height="20" as="geometry" />
        </mxCell>
        <mxCell id="lOT5QitQceJ5SUjbl__B-49" value="" style="rounded=0;whiteSpace=wrap;html=1;fillColor=#dae8fc;strokeColor=#6c8ebf;" vertex="1" parent="1">
          <mxGeometry x="82.5" y="230" width="7.5" height="570" as="geometry" />
        </mxCell>
        <mxCell id="lOT5QitQceJ5SUjbl__B-50" value="" style="endArrow=classic;html=1;rounded=0;" edge="1" parent="1">
          <mxGeometry width="50" height="50" relative="1" as="geometry">
            <mxPoint x="281.25" y="620" as="sourcePoint" />
            <mxPoint x="93.25" y="620" as="targetPoint" />
          </mxGeometry>
        </mxCell>
        <mxCell id="lOT5QitQceJ5SUjbl__B-51" value="Dataset NHANES" style="edgeLabel;html=1;align=center;verticalAlign=middle;resizable=0;points=[];" connectable="0" vertex="1" parent="lOT5QitQceJ5SUjbl__B-50">
          <mxGeometry x="0.193" y="3" relative="1" as="geometry">
            <mxPoint x="22" as="offset" />
          </mxGeometry>
        </mxCell>
        <mxCell id="lOT5QitQceJ5SUjbl__B-52" value="" style="endArrow=classic;html=1;rounded=0;edgeStyle=orthogonalEdgeStyle;" edge="1" parent="1">
          <mxGeometry width="50" height="50" relative="1" as="geometry">
            <mxPoint x="288.75" y="730" as="sourcePoint" />
            <mxPoint x="291.75" y="766" as="targetPoint" />
            <Array as="points">
              <mxPoint x="321.75" y="730" />
              <mxPoint x="321.75" y="766" />
            </Array>
          </mxGeometry>
        </mxCell>
        <mxCell id="lOT5QitQceJ5SUjbl__B-53" value="&lt;font style=&quot;font-size: 12px;&quot;&gt;Ekstraksi&lt;/font&gt;&lt;div&gt;&lt;font style=&quot;font-size: 12px;&quot;&gt;Metadata&lt;/font&gt;&lt;/div&gt;" style="text;html=1;align=center;verticalAlign=middle;whiteSpace=wrap;rounded=0;" vertex="1" parent="1">
          <mxGeometry x="305" y="740" width="120" height="30" as="geometry" />
        </mxCell>
        <mxCell id="lOT5QitQceJ5SUjbl__B-54" value="" style="endArrow=classic;html=1;rounded=0;" edge="1" parent="1">
          <mxGeometry width="50" height="50" relative="1" as="geometry">
            <mxPoint x="278" y="790.03" as="sourcePoint" />
            <mxPoint x="90" y="790.03" as="targetPoint" />
          </mxGeometry>
        </mxCell>
        <mxCell id="lOT5QitQceJ5SUjbl__B-55" value="Metadata NHANES" style="edgeLabel;html=1;align=center;verticalAlign=middle;resizable=0;points=[];" connectable="0" vertex="1" parent="lOT5QitQceJ5SUjbl__B-54">
          <mxGeometry x="0.193" y="3" relative="1" as="geometry">
            <mxPoint x="22" as="offset" />
          </mxGeometry>
        </mxCell>
        <mxCell id="lOT5QitQceJ5SUjbl__B-59" value="File Data XPT NHANES" style="shape=mxgraph.bpmn.data;labelPosition=center;verticalLabelPosition=bottom;align=center;verticalAlign=top;size=10;html=1;fontSize=8;" vertex="1" parent="1">
          <mxGeometry x="390" y="520" width="25" height="30" as="geometry" />
        </mxCell>
        <mxCell id="lOT5QitQceJ5SUjbl__B-60" value="" style="endArrow=none;dashed=1;html=1;rounded=0;" edge="1" parent="1" source="lOT5QitQceJ5SUjbl__B-59">
          <mxGeometry width="50" height="50" relative="1" as="geometry">
            <mxPoint x="410" y="520" as="sourcePoint" />
            <mxPoint x="400" y="510" as="targetPoint" />
          </mxGeometry>
        </mxCell>
        <mxCell id="lOT5QitQceJ5SUjbl__B-61" value="HTML metadata" style="shape=mxgraph.bpmn.data;labelPosition=center;verticalLabelPosition=bottom;align=center;verticalAlign=top;size=10;html=1;fontSize=8;" vertex="1" parent="1">
          <mxGeometry x="450" y="700" width="25" height="30" as="geometry" />
        </mxCell>
        <mxCell id="lOT5QitQceJ5SUjbl__B-62" value="" style="endArrow=none;dashed=1;html=1;rounded=0;" edge="1" parent="1">
          <mxGeometry width="50" height="50" relative="1" as="geometry">
            <mxPoint x="462.08" y="700" as="sourcePoint" />
            <mxPoint x="462.08" y="690" as="targetPoint" />
          </mxGeometry>
        </mxCell>
        <mxCell id="lOT5QitQceJ5SUjbl__B-64" value="" style="endArrow=classic;html=1;rounded=0;edgeStyle=orthogonalEdgeStyle;" edge="1" parent="1">
          <mxGeometry width="50" height="50" relative="1" as="geometry">
            <mxPoint x="288.75" y="570" as="sourcePoint" />
            <mxPoint x="291.75" y="606" as="targetPoint" />
            <Array as="points">
              <mxPoint x="321.75" y="570" />
              <mxPoint x="321.75" y="606" />
            </Array>
          </mxGeometry>
        </mxCell>
        <mxCell id="lOT5QitQceJ5SUjbl__B-65" value="Konversi format&lt;div&gt;file menjadi csv&lt;/div&gt;" style="text;html=1;align=center;verticalAlign=middle;whiteSpace=wrap;rounded=0;" vertex="1" parent="1">
          <mxGeometry x="310" y="570" width="120" height="30" as="geometry" />
        </mxCell>
        <mxCell id="lOT5QitQceJ5SUjbl__B-66" value="File Data CSV NHANES" style="shape=mxgraph.bpmn.data;labelPosition=center;verticalLabelPosition=bottom;align=center;verticalAlign=top;size=10;html=1;fontSize=8;" vertex="1" parent="1">
          <mxGeometry x="125" y="640" width="25" height="30" as="geometry" />
        </mxCell>
        <mxCell id="lOT5QitQceJ5SUjbl__B-68" value="" style="endArrow=none;dashed=1;html=1;rounded=0;" edge="1" parent="1">
          <mxGeometry width="50" height="50" relative="1" as="geometry">
            <mxPoint x="132.08" y="640" as="sourcePoint" />
            <mxPoint x="132.08" y="620" as="targetPoint" />
          </mxGeometry>
        </mxCell>
        <mxCell id="lOT5QitQceJ5SUjbl__B-69" value="Metadata dataset&lt;div&gt;NHANES&lt;/div&gt;" style="shape=mxgraph.bpmn.data;labelPosition=center;verticalLabelPosition=bottom;align=center;verticalAlign=top;size=10;html=1;fontSize=8;" vertex="1" parent="1">
          <mxGeometry x="117.5" y="810" width="25" height="30" as="geometry" />
        </mxCell>
        <mxCell id="lOT5QitQceJ5SUjbl__B-71" value="" style="endArrow=none;dashed=1;html=1;rounded=0;" edge="1" parent="1" source="lOT5QitQceJ5SUjbl__B-69">
          <mxGeometry width="50" height="50" relative="1" as="geometry">
            <mxPoint x="130" y="810" as="sourcePoint" />
            <mxPoint x="130" y="790" as="targetPoint" />
          </mxGeometry>
        </mxCell>
        <mxCell id="lOT5QitQceJ5SUjbl__B-73" value="&lt;font style=&quot;font-size: 24px;&quot;&gt;3 Pemilihan dan Rekayasa Fitur&lt;/font&gt;&lt;div&gt;______________________________&lt;span style=&quot;background-color: initial;&quot;&gt;______________________________&lt;/span&gt;&lt;span style=&quot;background-color: initial;&quot;&gt;______________________________&lt;/span&gt;&lt;span style=&quot;background-color: initial;&quot;&gt;______________________________&lt;/span&gt;&lt;/div&gt;" style="text;html=1;align=center;verticalAlign=middle;whiteSpace=wrap;rounded=0;fontStyle=1" vertex="1" parent="1">
          <mxGeometry x="20" y="970" width="810" height="30" as="geometry" />
        </mxCell>
        <mxCell id="lOT5QitQceJ5SUjbl__B-109" style="edgeStyle=orthogonalEdgeStyle;rounded=0;orthogonalLoop=1;jettySize=auto;html=1;" edge="1" parent="1" source="lOT5QitQceJ5SUjbl__B-74" target="lOT5QitQceJ5SUjbl__B-75">
          <mxGeometry relative="1" as="geometry" />
        </mxCell>
        <mxCell id="lOT5QitQceJ5SUjbl__B-74" value="&lt;font style=&quot;font-size: 14px;&quot;&gt;&lt;b&gt;Demographic&lt;/b&gt;&lt;/font&gt;&lt;div style=&quot;&quot;&gt;&lt;font style=&quot;font-size: 12px;&quot;&gt;1 file&lt;/font&gt;&lt;/div&gt;&lt;div style=&quot;&quot;&gt;&lt;font style=&quot;font-size: 12px;&quot;&gt;46 variabel&lt;/font&gt;&lt;/div&gt;" style="shape=note;whiteSpace=wrap;html=1;backgroundOutline=1;darkOpacity=0.05;fillColor=#99CCFF;" vertex="1" parent="1">
          <mxGeometry x="92.5" y="1120" width="110" height="140" as="geometry" />
        </mxCell>
        <mxCell id="lOT5QitQceJ5SUjbl__B-110" style="edgeStyle=orthogonalEdgeStyle;rounded=0;orthogonalLoop=1;jettySize=auto;html=1;" edge="1" parent="1" source="lOT5QitQceJ5SUjbl__B-75" target="lOT5QitQceJ5SUjbl__B-101">
          <mxGeometry relative="1" as="geometry" />
        </mxCell>
        <mxCell id="lOT5QitQceJ5SUjbl__B-75" value="&lt;div&gt;&lt;font style=&quot;font-size: 14px;&quot;&gt;&lt;b&gt;Demographic&lt;/b&gt;&lt;/font&gt;&lt;div style=&quot;&quot;&gt;&lt;font style=&quot;font-size: 12px;&quot;&gt;1 file&lt;/font&gt;&lt;/div&gt;&lt;div style=&quot;&quot;&gt;&lt;font style=&quot;font-size: 12px;&quot;&gt;14 variabel&lt;/font&gt;&lt;/div&gt;&lt;/div&gt;" style="shape=note;whiteSpace=wrap;html=1;backgroundOutline=1;darkOpacity=0.05;fillColor=#99CCFF;" vertex="1" parent="1">
          <mxGeometry x="350" y="1120" width="110" height="140" as="geometry" />
        </mxCell>
        <mxCell id="lOT5QitQceJ5SUjbl__B-112" style="edgeStyle=orthogonalEdgeStyle;rounded=0;orthogonalLoop=1;jettySize=auto;html=1;fillColor=#FFFF99;" edge="1" parent="1" source="lOT5QitQceJ5SUjbl__B-76" target="lOT5QitQceJ5SUjbl__B-103">
          <mxGeometry relative="1" as="geometry" />
        </mxCell>
        <mxCell id="lOT5QitQceJ5SUjbl__B-76" value="&lt;font style=&quot;font-size: 14px;&quot;&gt;&lt;b&gt;Dietary&lt;/b&gt;&lt;/font&gt;&lt;div&gt;2 file&lt;/div&gt;&lt;div&gt;28 variabel&lt;/div&gt;" style="shape=note;whiteSpace=wrap;html=1;backgroundOutline=1;darkOpacity=0.05;fillColor=#FFFF99;" vertex="1" parent="1">
          <mxGeometry x="350" y="1340" width="110" height="140" as="geometry" />
        </mxCell>
        <mxCell id="lOT5QitQceJ5SUjbl__B-77" value="" style="shape=note;whiteSpace=wrap;html=1;backgroundOutline=1;darkOpacity=0.05;fillColor=#FFFF99;" vertex="1" parent="1">
          <mxGeometry x="60" y="1310" width="110" height="140" as="geometry" />
        </mxCell>
        <mxCell id="lOT5QitQceJ5SUjbl__B-78" value="" style="shape=note;whiteSpace=wrap;html=1;backgroundOutline=1;darkOpacity=0.05;fillColor=#FFFF99;" vertex="1" parent="1">
          <mxGeometry x="70" y="1320" width="110" height="140" as="geometry" />
        </mxCell>
        <mxCell id="lOT5QitQceJ5SUjbl__B-79" value="" style="shape=note;whiteSpace=wrap;html=1;backgroundOutline=1;darkOpacity=0.05;fillColor=#FFFF99;" vertex="1" parent="1">
          <mxGeometry x="80" y="1330" width="110" height="140" as="geometry" />
        </mxCell>
        <mxCell id="lOT5QitQceJ5SUjbl__B-111" style="edgeStyle=orthogonalEdgeStyle;rounded=0;orthogonalLoop=1;jettySize=auto;html=1;fillColor=#FFFF99;" edge="1" parent="1" source="lOT5QitQceJ5SUjbl__B-80" target="lOT5QitQceJ5SUjbl__B-76">
          <mxGeometry relative="1" as="geometry" />
        </mxCell>
        <mxCell id="lOT5QitQceJ5SUjbl__B-80" value="&lt;font style=&quot;font-size: 14px;&quot;&gt;&lt;b&gt;Dietary&lt;/b&gt;&lt;/font&gt;&lt;div&gt;13 file&lt;/div&gt;&lt;div&gt;701 variabel&lt;/div&gt;" style="shape=note;whiteSpace=wrap;html=1;backgroundOutline=1;darkOpacity=0.05;fillColor=#FFFF99;" vertex="1" parent="1">
          <mxGeometry x="90" y="1340" width="110" height="140" as="geometry" />
        </mxCell>
        <mxCell id="lOT5QitQceJ5SUjbl__B-83" value="" style="shape=note;whiteSpace=wrap;html=1;backgroundOutline=1;darkOpacity=0.05;fillColor=#FF99FF;" vertex="1" parent="1">
          <mxGeometry x="62.5" y="1520" width="110" height="140" as="geometry" />
        </mxCell>
        <mxCell id="lOT5QitQceJ5SUjbl__B-84" value="" style="shape=note;whiteSpace=wrap;html=1;backgroundOutline=1;darkOpacity=0.05;fillColor=#FF99FF;" vertex="1" parent="1">
          <mxGeometry x="72.5" y="1530" width="110" height="140" as="geometry" />
        </mxCell>
        <mxCell id="lOT5QitQceJ5SUjbl__B-85" value="" style="shape=note;whiteSpace=wrap;html=1;backgroundOutline=1;darkOpacity=0.05;fillColor=#FF99FF;" vertex="1" parent="1">
          <mxGeometry x="82.5" y="1540" width="110" height="140" as="geometry" />
        </mxCell>
        <mxCell id="lOT5QitQceJ5SUjbl__B-93" value="" style="shape=note;whiteSpace=wrap;html=1;backgroundOutline=1;darkOpacity=0.05;fillColor=#FF99FF;" vertex="1" parent="1">
          <mxGeometry x="340" y="1540" width="110" height="140" as="geometry" />
        </mxCell>
        <mxCell id="lOT5QitQceJ5SUjbl__B-113" style="edgeStyle=orthogonalEdgeStyle;rounded=0;orthogonalLoop=1;jettySize=auto;html=1;fillColor=#FF99FF;" edge="1" parent="1" source="lOT5QitQceJ5SUjbl__B-86" target="lOT5QitQceJ5SUjbl__B-87">
          <mxGeometry relative="1" as="geometry" />
        </mxCell>
        <mxCell id="lOT5QitQceJ5SUjbl__B-86" value="&lt;font style=&quot;font-size: 14px;&quot;&gt;&lt;b&gt;Examination&lt;/b&gt;&lt;/font&gt;&lt;div&gt;14 file&lt;/div&gt;&lt;div&gt;1688 variabel&lt;/div&gt;" style="shape=note;whiteSpace=wrap;html=1;backgroundOutline=1;darkOpacity=0.05;fillColor=#FF99FF;" vertex="1" parent="1">
          <mxGeometry x="92.5" y="1550" width="110" height="140" as="geometry" />
        </mxCell>
        <mxCell id="lOT5QitQceJ5SUjbl__B-114" style="edgeStyle=orthogonalEdgeStyle;rounded=0;orthogonalLoop=1;jettySize=auto;html=1;fillColor=#FF99FF;" edge="1" parent="1" source="lOT5QitQceJ5SUjbl__B-87" target="lOT5QitQceJ5SUjbl__B-104">
          <mxGeometry relative="1" as="geometry" />
        </mxCell>
        <mxCell id="lOT5QitQceJ5SUjbl__B-87" value="&lt;font style=&quot;font-size: 14px;&quot;&gt;&lt;b&gt;Examination&lt;/b&gt;&lt;/font&gt;&lt;div&gt;2 file&lt;/div&gt;&lt;div&gt;19 variabel&lt;/div&gt;" style="shape=note;whiteSpace=wrap;html=1;backgroundOutline=1;darkOpacity=0.05;fillColor=#FF99FF;" vertex="1" parent="1">
          <mxGeometry x="350" y="1550" width="110" height="140" as="geometry" />
        </mxCell>
        <mxCell id="lOT5QitQceJ5SUjbl__B-88" value="" style="shape=note;whiteSpace=wrap;html=1;backgroundOutline=1;darkOpacity=0.05;fillColor=#CCFFCC;" vertex="1" parent="1">
          <mxGeometry x="65" y="1730" width="110" height="140" as="geometry" />
        </mxCell>
        <mxCell id="lOT5QitQceJ5SUjbl__B-94" value="" style="shape=note;whiteSpace=wrap;html=1;backgroundOutline=1;darkOpacity=0.05;fillColor=#CCFFCC;" vertex="1" parent="1">
          <mxGeometry x="340" y="1750" width="110" height="140" as="geometry" />
        </mxCell>
        <mxCell id="lOT5QitQceJ5SUjbl__B-89" value="" style="shape=note;whiteSpace=wrap;html=1;backgroundOutline=1;darkOpacity=0.05;fillColor=#CCFFCC;" vertex="1" parent="1">
          <mxGeometry x="75" y="1740" width="110" height="140" as="geometry" />
        </mxCell>
        <mxCell id="lOT5QitQceJ5SUjbl__B-90" value="" style="shape=note;whiteSpace=wrap;html=1;backgroundOutline=1;darkOpacity=0.05;fillColor=#CCFFCC;" vertex="1" parent="1">
          <mxGeometry x="85" y="1750" width="110" height="140" as="geometry" />
        </mxCell>
        <mxCell id="lOT5QitQceJ5SUjbl__B-115" style="edgeStyle=orthogonalEdgeStyle;rounded=0;orthogonalLoop=1;jettySize=auto;html=1;fillColor=#CCFFCC;" edge="1" parent="1" source="lOT5QitQceJ5SUjbl__B-91" target="lOT5QitQceJ5SUjbl__B-92">
          <mxGeometry relative="1" as="geometry" />
        </mxCell>
        <mxCell id="lOT5QitQceJ5SUjbl__B-91" value="&lt;font style=&quot;font-size: 14px;&quot;&gt;&lt;b&gt;Laboratory&lt;/b&gt;&lt;/font&gt;&lt;div&gt;53 file&lt;/div&gt;&lt;div&gt;558 variabel&lt;/div&gt;" style="shape=note;whiteSpace=wrap;html=1;backgroundOutline=1;darkOpacity=0.05;fillColor=#CCFFCC;" vertex="1" parent="1">
          <mxGeometry x="95" y="1760" width="110" height="140" as="geometry" />
        </mxCell>
        <mxCell id="lOT5QitQceJ5SUjbl__B-116" style="edgeStyle=orthogonalEdgeStyle;rounded=0;orthogonalLoop=1;jettySize=auto;html=1;fillColor=#CCFFCC;" edge="1" parent="1" source="lOT5QitQceJ5SUjbl__B-92" target="lOT5QitQceJ5SUjbl__B-105">
          <mxGeometry relative="1" as="geometry" />
        </mxCell>
        <mxCell id="lOT5QitQceJ5SUjbl__B-92" value="&lt;font style=&quot;font-size: 14px;&quot;&gt;&lt;b&gt;Laboratory&lt;/b&gt;&lt;/font&gt;&lt;div&gt;2 file&lt;/div&gt;&lt;div&gt;6 variabel&lt;/div&gt;" style="shape=note;whiteSpace=wrap;html=1;backgroundOutline=1;darkOpacity=0.05;fillColor=#CCFFCC;" vertex="1" parent="1">
          <mxGeometry x="350" y="1760" width="110" height="140" as="geometry" />
        </mxCell>
        <mxCell id="lOT5QitQceJ5SUjbl__B-95" value="" style="shape=note;whiteSpace=wrap;html=1;backgroundOutline=1;darkOpacity=0.05;fillColor=#FF9999;" vertex="1" parent="1">
          <mxGeometry x="65" y="1940" width="110" height="140" as="geometry" />
        </mxCell>
        <mxCell id="lOT5QitQceJ5SUjbl__B-96" value="" style="shape=note;whiteSpace=wrap;html=1;backgroundOutline=1;darkOpacity=0.05;fillColor=#FF9999;" vertex="1" parent="1">
          <mxGeometry x="75" y="1950" width="110" height="140" as="geometry" />
        </mxCell>
        <mxCell id="lOT5QitQceJ5SUjbl__B-99" value="" style="shape=note;whiteSpace=wrap;html=1;backgroundOutline=1;darkOpacity=0.05;fillColor=#FF9999;" vertex="1" parent="1">
          <mxGeometry x="337.5" y="1960" width="110" height="140" as="geometry" />
        </mxCell>
        <mxCell id="lOT5QitQceJ5SUjbl__B-97" value="" style="shape=note;whiteSpace=wrap;html=1;backgroundOutline=1;darkOpacity=0.05;fillColor=#FF9999;" vertex="1" parent="1">
          <mxGeometry x="85" y="1960" width="110" height="140" as="geometry" />
        </mxCell>
        <mxCell id="lOT5QitQceJ5SUjbl__B-117" style="edgeStyle=orthogonalEdgeStyle;rounded=0;orthogonalLoop=1;jettySize=auto;html=1;fillColor=#FF9999;" edge="1" parent="1" source="lOT5QitQceJ5SUjbl__B-98" target="lOT5QitQceJ5SUjbl__B-100">
          <mxGeometry relative="1" as="geometry" />
        </mxCell>
        <mxCell id="lOT5QitQceJ5SUjbl__B-98" value="&lt;font style=&quot;font-size: 14px;&quot;&gt;&lt;b&gt;Questionnaire&lt;/b&gt;&lt;/font&gt;&lt;div&gt;43 file&lt;/div&gt;&lt;div&gt;1025 variabel&lt;/div&gt;" style="shape=note;whiteSpace=wrap;html=1;backgroundOutline=1;darkOpacity=0.05;fillColor=#FF9999;" vertex="1" parent="1">
          <mxGeometry x="95" y="1970" width="110" height="140" as="geometry" />
        </mxCell>
        <mxCell id="lOT5QitQceJ5SUjbl__B-118" style="edgeStyle=orthogonalEdgeStyle;rounded=0;orthogonalLoop=1;jettySize=auto;html=1;fillColor=#FF9999;" edge="1" parent="1" source="lOT5QitQceJ5SUjbl__B-100" target="lOT5QitQceJ5SUjbl__B-107">
          <mxGeometry relative="1" as="geometry" />
        </mxCell>
        <mxCell id="lOT5QitQceJ5SUjbl__B-100" value="&lt;font style=&quot;font-size: 14px;&quot;&gt;&lt;b&gt;Questionnaire&lt;/b&gt;&lt;/font&gt;&lt;div&gt;&lt;span style=&quot;background-color: initial;&quot;&gt;24 file&lt;/span&gt;&lt;/div&gt;&lt;div&gt;&lt;span style=&quot;background-color: initial;&quot;&gt;97 variabel&lt;/span&gt;&lt;br&gt;&lt;/div&gt;" style="shape=note;whiteSpace=wrap;html=1;backgroundOutline=1;darkOpacity=0.05;fillColor=#FF9999;" vertex="1" parent="1">
          <mxGeometry x="347.5" y="1970" width="110" height="140" as="geometry" />
        </mxCell>
        <mxCell id="lOT5QitQceJ5SUjbl__B-120" style="edgeStyle=orthogonalEdgeStyle;rounded=0;orthogonalLoop=1;jettySize=auto;html=1;" edge="1" parent="1" source="lOT5QitQceJ5SUjbl__B-101" target="lOT5QitQceJ5SUjbl__B-106">
          <mxGeometry relative="1" as="geometry">
            <Array as="points">
              <mxPoint x="760" y="1190" />
              <mxPoint x="760" y="1620" />
            </Array>
          </mxGeometry>
        </mxCell>
        <mxCell id="lOT5QitQceJ5SUjbl__B-101" value="&lt;div&gt;&lt;span style=&quot;font-size: 14px;&quot;&gt;Data Gabungan &lt;b&gt;Demographics&lt;/b&gt;&lt;/span&gt;&lt;/div&gt;" style="shape=note;whiteSpace=wrap;html=1;backgroundOutline=1;darkOpacity=0.05;fillColor=#99CCFF;" vertex="1" parent="1">
          <mxGeometry x="590" y="1120" width="110" height="140" as="geometry" />
        </mxCell>
        <mxCell id="lOT5QitQceJ5SUjbl__B-121" style="edgeStyle=orthogonalEdgeStyle;rounded=0;orthogonalLoop=1;jettySize=auto;html=1;" edge="1" parent="1" source="lOT5QitQceJ5SUjbl__B-103" target="lOT5QitQceJ5SUjbl__B-106">
          <mxGeometry relative="1" as="geometry">
            <Array as="points">
              <mxPoint x="760" y="1410" />
              <mxPoint x="760" y="1620" />
            </Array>
          </mxGeometry>
        </mxCell>
        <mxCell id="lOT5QitQceJ5SUjbl__B-103" value="&lt;div&gt;&lt;span style=&quot;font-size: 14px;&quot;&gt;Data Gabungan &lt;b&gt;Dietary&lt;/b&gt;&lt;/span&gt;&lt;/div&gt;" style="shape=note;whiteSpace=wrap;html=1;backgroundOutline=1;darkOpacity=0.05;fillColor=#FFFF99;" vertex="1" parent="1">
          <mxGeometry x="590" y="1340" width="110" height="140" as="geometry" />
        </mxCell>
        <mxCell id="lOT5QitQceJ5SUjbl__B-119" style="edgeStyle=orthogonalEdgeStyle;rounded=0;orthogonalLoop=1;jettySize=auto;html=1;" edge="1" parent="1" source="lOT5QitQceJ5SUjbl__B-104" target="lOT5QitQceJ5SUjbl__B-106">
          <mxGeometry relative="1" as="geometry" />
        </mxCell>
        <mxCell id="lOT5QitQceJ5SUjbl__B-104" value="&lt;div&gt;&lt;span style=&quot;font-size: 14px;&quot;&gt;Data Gabungan &lt;b&gt;Examination&lt;/b&gt;&lt;/span&gt;&lt;/div&gt;" style="shape=note;whiteSpace=wrap;html=1;backgroundOutline=1;darkOpacity=0.05;fillColor=#FF99FF;" vertex="1" parent="1">
          <mxGeometry x="590" y="1550" width="110" height="140" as="geometry" />
        </mxCell>
        <mxCell id="lOT5QitQceJ5SUjbl__B-122" style="edgeStyle=orthogonalEdgeStyle;rounded=0;orthogonalLoop=1;jettySize=auto;html=1;" edge="1" parent="1" source="lOT5QitQceJ5SUjbl__B-105" target="lOT5QitQceJ5SUjbl__B-106">
          <mxGeometry relative="1" as="geometry">
            <Array as="points">
              <mxPoint x="760" y="1830" />
              <mxPoint x="760" y="1620" />
            </Array>
          </mxGeometry>
        </mxCell>
        <mxCell id="lOT5QitQceJ5SUjbl__B-105" value="&lt;div&gt;&lt;span style=&quot;font-size: 14px;&quot;&gt;Data Gabungan &lt;b&gt;Laboratory&lt;/b&gt;&lt;/span&gt;&lt;/div&gt;" style="shape=note;whiteSpace=wrap;html=1;backgroundOutline=1;darkOpacity=0.05;fillColor=#CCFFCC;" vertex="1" parent="1">
          <mxGeometry x="590" y="1760" width="110" height="140" as="geometry" />
        </mxCell>
        <mxCell id="lOT5QitQceJ5SUjbl__B-106" value="&lt;div&gt;&lt;span style=&quot;font-size: 14px;&quot;&gt;&lt;b&gt;Data Gabungan Akhir NHANES&lt;/b&gt;&lt;/span&gt;&lt;/div&gt;" style="shape=note;whiteSpace=wrap;html=1;backgroundOutline=1;darkOpacity=0.05;fillColor=#CCCCCC;" vertex="1" parent="1">
          <mxGeometry x="840" y="1550" width="110" height="140" as="geometry" />
        </mxCell>
        <mxCell id="lOT5QitQceJ5SUjbl__B-123" style="edgeStyle=orthogonalEdgeStyle;rounded=0;orthogonalLoop=1;jettySize=auto;html=1;" edge="1" parent="1" source="lOT5QitQceJ5SUjbl__B-107" target="lOT5QitQceJ5SUjbl__B-106">
          <mxGeometry relative="1" as="geometry">
            <Array as="points">
              <mxPoint x="760" y="2040" />
              <mxPoint x="760" y="1620" />
            </Array>
          </mxGeometry>
        </mxCell>
        <mxCell id="lOT5QitQceJ5SUjbl__B-107" value="&lt;div&gt;&lt;span style=&quot;font-size: 14px;&quot;&gt;Data Gabungan &lt;b&gt;Questionnaire&lt;/b&gt;&lt;/span&gt;&lt;/div&gt;" style="shape=note;whiteSpace=wrap;html=1;backgroundOutline=1;darkOpacity=0.05;fillColor=#FF9999;" vertex="1" parent="1">
          <mxGeometry x="590" y="1970" width="110" height="140" as="geometry" />
        </mxCell>
        <mxCell id="lOT5QitQceJ5SUjbl__B-124" value="Penentuan Fitur" style="rounded=0;whiteSpace=wrap;html=1;fontSize=16;fontStyle=1" vertex="1" parent="1">
          <mxGeometry x="30" y="1070" width="280" height="30" as="geometry" />
        </mxCell>
        <mxCell id="lOT5QitQceJ5SUjbl__B-125" value="Pengambilan dan Penggabungan Fitur" style="rounded=0;whiteSpace=wrap;html=1;fontSize=16;fontStyle=1" vertex="1" parent="1">
          <mxGeometry x="290" y="1070" width="700" height="30" as="geometry" />
        </mxCell>
        <mxCell id="lOT5QitQceJ5SUjbl__B-128" value="" style="endArrow=none;dashed=1;html=1;rounded=0;exitX=0.292;exitY=1;exitDx=0;exitDy=0;exitPerimeter=0;" edge="1" parent="1">
          <mxGeometry width="50" height="50" relative="1" as="geometry">
            <mxPoint x="290.32000000000016" y="2140.0000000000005" as="sourcePoint" />
            <mxPoint x="290" y="1070" as="targetPoint" />
          </mxGeometry>
        </mxCell>
        <mxCell id="lOT5QitQceJ5SUjbl__B-130" value="&lt;font style=&quot;font-size: 24px;&quot;&gt;Data Awal&lt;/font&gt;" style="text;html=1;align=center;verticalAlign=middle;whiteSpace=wrap;rounded=0;fontStyle=1" vertex="1" parent="1">
          <mxGeometry x="1137.5" y="1407.5" width="120" height="65" as="geometry" />
        </mxCell>
        <mxCell id="lOT5QitQceJ5SUjbl__B-131" value="" style="whiteSpace=wrap;html=1;aspect=fixed;fillColor=#333333;" vertex="1" parent="1">
          <mxGeometry x="1400" y="1500" width="80" height="80" as="geometry" />
        </mxCell>
        <mxCell id="lOT5QitQceJ5SUjbl__B-132" value="" style="whiteSpace=wrap;html=1;aspect=fixed;fillColor=#333333;" vertex="1" parent="1">
          <mxGeometry x="1500" y="1500" width="80" height="80" as="geometry" />
        </mxCell>
        <mxCell id="lOT5QitQceJ5SUjbl__B-186" style="edgeStyle=orthogonalEdgeStyle;rounded=0;orthogonalLoop=1;jettySize=auto;html=1;" edge="1" parent="1" source="lOT5QitQceJ5SUjbl__B-133" target="lOT5QitQceJ5SUjbl__B-166">
          <mxGeometry relative="1" as="geometry" />
        </mxCell>
        <mxCell id="lOT5QitQceJ5SUjbl__B-133" value="&lt;font style=&quot;font-size: 16px;&quot;&gt;Null&lt;/font&gt;" style="whiteSpace=wrap;html=1;aspect=fixed;" vertex="1" parent="1">
          <mxGeometry x="1600" y="1500" width="80" height="80" as="geometry" />
        </mxCell>
        <mxCell id="lOT5QitQceJ5SUjbl__B-134" value="" style="whiteSpace=wrap;html=1;aspect=fixed;fillColor=#333333;" vertex="1" parent="1">
          <mxGeometry x="1700" y="1500" width="80" height="80" as="geometry" />
        </mxCell>
        <mxCell id="lOT5QitQceJ5SUjbl__B-135" value="" style="whiteSpace=wrap;html=1;aspect=fixed;fillColor=#333333;" vertex="1" parent="1">
          <mxGeometry x="1800" y="1500" width="80" height="80" as="geometry" />
        </mxCell>
        <mxCell id="lOT5QitQceJ5SUjbl__B-190" style="edgeStyle=orthogonalEdgeStyle;rounded=0;orthogonalLoop=1;jettySize=auto;html=1;" edge="1" parent="1" source="lOT5QitQceJ5SUjbl__B-136" target="lOT5QitQceJ5SUjbl__B-184">
          <mxGeometry relative="1" as="geometry" />
        </mxCell>
        <mxCell id="lOT5QitQceJ5SUjbl__B-136" value="&lt;font style=&quot;font-size: 15px;&quot;&gt;Null&lt;/font&gt;" style="whiteSpace=wrap;html=1;aspect=fixed;" vertex="1" parent="1">
          <mxGeometry x="1900" y="1500" width="80" height="80" as="geometry" />
        </mxCell>
        <mxCell id="lOT5QitQceJ5SUjbl__B-137" value="" style="whiteSpace=wrap;html=1;aspect=fixed;fillColor=#333333;" vertex="1" parent="1">
          <mxGeometry x="2000" y="1500" width="80" height="80" as="geometry" />
        </mxCell>
        <mxCell id="lOT5QitQceJ5SUjbl__B-138" value="" style="whiteSpace=wrap;html=1;aspect=fixed;fillColor=#333333;" vertex="1" parent="1">
          <mxGeometry x="2100" y="1500" width="80" height="80" as="geometry" />
        </mxCell>
        <mxCell id="lOT5QitQceJ5SUjbl__B-192" style="edgeStyle=orthogonalEdgeStyle;rounded=0;orthogonalLoop=1;jettySize=auto;html=1;" edge="1" parent="1" source="lOT5QitQceJ5SUjbl__B-139" target="lOT5QitQceJ5SUjbl__B-185">
          <mxGeometry relative="1" as="geometry" />
        </mxCell>
        <mxCell id="lOT5QitQceJ5SUjbl__B-139" value="&lt;font style=&quot;font-size: 15px;&quot;&gt;Null&lt;/font&gt;" style="whiteSpace=wrap;html=1;aspect=fixed;" vertex="1" parent="1">
          <mxGeometry x="2200" y="1500" width="80" height="80" as="geometry" />
        </mxCell>
        <mxCell id="lOT5QitQceJ5SUjbl__B-195" style="edgeStyle=orthogonalEdgeStyle;rounded=0;orthogonalLoop=1;jettySize=auto;html=1;" edge="1" parent="1" source="lOT5QitQceJ5SUjbl__B-140" target="lOT5QitQceJ5SUjbl__B-194">
          <mxGeometry relative="1" as="geometry" />
        </mxCell>
        <mxCell id="lOT5QitQceJ5SUjbl__B-140" value="&lt;font style=&quot;font-size: 15px;&quot;&gt;Null&lt;/font&gt;" style="whiteSpace=wrap;html=1;aspect=fixed;" vertex="1" parent="1">
          <mxGeometry x="2300" y="1500" width="80" height="80" as="geometry" />
        </mxCell>
        <mxCell id="lOT5QitQceJ5SUjbl__B-162" value="" style="whiteSpace=wrap;html=1;aspect=fixed;fillColor=#333333;" vertex="1" parent="1">
          <mxGeometry x="2400" y="1500" width="80" height="80" as="geometry" />
        </mxCell>
        <mxCell id="lOT5QitQceJ5SUjbl__B-163" value="" style="whiteSpace=wrap;html=1;aspect=fixed;fillColor=#333333;" vertex="1" parent="1">
          <mxGeometry x="2500" y="1500" width="80" height="80" as="geometry" />
        </mxCell>
        <mxCell id="lOT5QitQceJ5SUjbl__B-164" value="" style="whiteSpace=wrap;html=1;aspect=fixed;fillColor=#333333;" vertex="1" parent="1">
          <mxGeometry x="2600" y="1500" width="80" height="80" as="geometry" />
        </mxCell>
        <mxCell id="lOT5QitQceJ5SUjbl__B-165" value="" style="whiteSpace=wrap;html=1;aspect=fixed;fillColor=#333333;" vertex="1" parent="1">
          <mxGeometry x="2700" y="1500" width="80" height="80" as="geometry" />
        </mxCell>
        <mxCell id="lOT5QitQceJ5SUjbl__B-187" style="edgeStyle=orthogonalEdgeStyle;rounded=0;orthogonalLoop=1;jettySize=auto;html=1;" edge="1" parent="1" source="lOT5QitQceJ5SUjbl__B-166" target="lOT5QitQceJ5SUjbl__B-171">
          <mxGeometry relative="1" as="geometry" />
        </mxCell>
        <mxCell id="lOT5QitQceJ5SUjbl__B-166" value="&lt;font style=&quot;font-size: 20px;&quot;&gt;Nilai Rata-Rata&lt;/font&gt;" style="rounded=1;whiteSpace=wrap;html=1;" vertex="1" parent="1">
          <mxGeometry x="1400" y="1610" width="480" height="40" as="geometry" />
        </mxCell>
        <mxCell id="lOT5QitQceJ5SUjbl__B-169" value="" style="whiteSpace=wrap;html=1;aspect=fixed;fillColor=#333333;" vertex="1" parent="1">
          <mxGeometry x="1400" y="1820" width="80" height="80" as="geometry" />
        </mxCell>
        <mxCell id="lOT5QitQceJ5SUjbl__B-170" value="" style="whiteSpace=wrap;html=1;aspect=fixed;fillColor=#333333;" vertex="1" parent="1">
          <mxGeometry x="1500" y="1820" width="80" height="80" as="geometry" />
        </mxCell>
        <mxCell id="lOT5QitQceJ5SUjbl__B-171" value="" style="whiteSpace=wrap;html=1;aspect=fixed;fillColor=#333333;" vertex="1" parent="1">
          <mxGeometry x="1600" y="1820" width="80" height="80" as="geometry" />
        </mxCell>
        <mxCell id="lOT5QitQceJ5SUjbl__B-172" value="" style="whiteSpace=wrap;html=1;aspect=fixed;fillColor=#333333;" vertex="1" parent="1">
          <mxGeometry x="1700" y="1820" width="80" height="80" as="geometry" />
        </mxCell>
        <mxCell id="lOT5QitQceJ5SUjbl__B-173" value="" style="whiteSpace=wrap;html=1;aspect=fixed;fillColor=#333333;" vertex="1" parent="1">
          <mxGeometry x="1800" y="1820" width="80" height="80" as="geometry" />
        </mxCell>
        <mxCell id="lOT5QitQceJ5SUjbl__B-174" value="" style="whiteSpace=wrap;html=1;aspect=fixed;fillColor=#333333;" vertex="1" parent="1">
          <mxGeometry x="1900" y="1820" width="80" height="80" as="geometry" />
        </mxCell>
        <mxCell id="lOT5QitQceJ5SUjbl__B-175" value="" style="whiteSpace=wrap;html=1;aspect=fixed;fillColor=#333333;" vertex="1" parent="1">
          <mxGeometry x="2000" y="1820" width="80" height="80" as="geometry" />
        </mxCell>
        <mxCell id="lOT5QitQceJ5SUjbl__B-176" value="" style="whiteSpace=wrap;html=1;aspect=fixed;fillColor=#333333;" vertex="1" parent="1">
          <mxGeometry x="2100" y="1820" width="80" height="80" as="geometry" />
        </mxCell>
        <mxCell id="lOT5QitQceJ5SUjbl__B-177" value="" style="whiteSpace=wrap;html=1;aspect=fixed;fillColor=#333333;" vertex="1" parent="1">
          <mxGeometry x="2200" y="1820" width="80" height="80" as="geometry" />
        </mxCell>
        <mxCell id="lOT5QitQceJ5SUjbl__B-178" value="" style="whiteSpace=wrap;html=1;aspect=fixed;fillColor=#333333;" vertex="1" parent="1">
          <mxGeometry x="2300" y="1820" width="80" height="80" as="geometry" />
        </mxCell>
        <mxCell id="lOT5QitQceJ5SUjbl__B-179" value="" style="whiteSpace=wrap;html=1;aspect=fixed;fillColor=#333333;" vertex="1" parent="1">
          <mxGeometry x="2400" y="1820" width="80" height="80" as="geometry" />
        </mxCell>
        <mxCell id="lOT5QitQceJ5SUjbl__B-180" value="" style="whiteSpace=wrap;html=1;aspect=fixed;fillColor=#333333;" vertex="1" parent="1">
          <mxGeometry x="2500" y="1820" width="80" height="80" as="geometry" />
        </mxCell>
        <mxCell id="lOT5QitQceJ5SUjbl__B-181" value="" style="whiteSpace=wrap;html=1;aspect=fixed;fillColor=#333333;" vertex="1" parent="1">
          <mxGeometry x="2600" y="1820" width="80" height="80" as="geometry" />
        </mxCell>
        <mxCell id="lOT5QitQceJ5SUjbl__B-182" value="" style="whiteSpace=wrap;html=1;aspect=fixed;fillColor=#333333;" vertex="1" parent="1">
          <mxGeometry x="2700" y="1820" width="80" height="80" as="geometry" />
        </mxCell>
        <mxCell id="lOT5QitQceJ5SUjbl__B-183" value="&lt;font style=&quot;font-size: 24px;&quot;&gt;Data Setelah dibersihkan&lt;/font&gt;" style="text;html=1;align=center;verticalAlign=middle;whiteSpace=wrap;rounded=0;fontStyle=1" vertex="1" parent="1">
          <mxGeometry x="1120" y="1827.5" width="155" height="65" as="geometry" />
        </mxCell>
        <mxCell id="lOT5QitQceJ5SUjbl__B-191" style="edgeStyle=orthogonalEdgeStyle;rounded=0;orthogonalLoop=1;jettySize=auto;html=1;" edge="1" parent="1" source="lOT5QitQceJ5SUjbl__B-184" target="lOT5QitQceJ5SUjbl__B-174">
          <mxGeometry relative="1" as="geometry" />
        </mxCell>
        <mxCell id="lOT5QitQceJ5SUjbl__B-184" value="&lt;font style=&quot;font-size: 20px;&quot;&gt;Nilai Rata-Rata&lt;/font&gt;" style="rounded=1;whiteSpace=wrap;html=1;" vertex="1" parent="1">
          <mxGeometry x="1700" y="1660" width="480" height="40" as="geometry" />
        </mxCell>
        <mxCell id="lOT5QitQceJ5SUjbl__B-193" style="edgeStyle=orthogonalEdgeStyle;rounded=0;orthogonalLoop=1;jettySize=auto;html=1;" edge="1" parent="1" source="lOT5QitQceJ5SUjbl__B-185" target="lOT5QitQceJ5SUjbl__B-177">
          <mxGeometry relative="1" as="geometry" />
        </mxCell>
        <mxCell id="lOT5QitQceJ5SUjbl__B-185" value="&lt;font style=&quot;font-size: 20px;&quot;&gt;Nilai Rata-Rata&lt;/font&gt;" style="rounded=1;whiteSpace=wrap;html=1;" vertex="1" parent="1">
          <mxGeometry x="2000" y="1710" width="480" height="40" as="geometry" />
        </mxCell>
        <mxCell id="lOT5QitQceJ5SUjbl__B-196" style="edgeStyle=orthogonalEdgeStyle;rounded=0;orthogonalLoop=1;jettySize=auto;html=1;" edge="1" parent="1" source="lOT5QitQceJ5SUjbl__B-194" target="lOT5QitQceJ5SUjbl__B-178">
          <mxGeometry relative="1" as="geometry" />
        </mxCell>
        <mxCell id="lOT5QitQceJ5SUjbl__B-194" value="&lt;font style=&quot;font-size: 20px;&quot;&gt;Nilai Rata-Rata&lt;/font&gt;" style="rounded=1;whiteSpace=wrap;html=1;" vertex="1" parent="1">
          <mxGeometry x="2100" y="1760" width="480" height="40" as="geometry" />
        </mxCell>
        <mxCell id="lOT5QitQceJ5SUjbl__B-197" value="&lt;font style=&quot;font-size: 24px;&quot;&gt;Rata-Rata dengan &lt;i&gt;Sliding Window&lt;/i&gt;&lt;/font&gt;" style="text;html=1;align=center;verticalAlign=middle;whiteSpace=wrap;rounded=0;fontStyle=1" vertex="1" parent="1">
          <mxGeometry x="1108" y="1667.5" width="207.5" height="65" as="geometry" />
        </mxCell>
        <mxCell id="lOT5QitQceJ5SUjbl__B-199" value="" style="whiteSpace=wrap;html=1;aspect=fixed;fillColor=#333333;" vertex="1" parent="1">
          <mxGeometry x="1400" y="1400" width="80" height="80" as="geometry" />
        </mxCell>
        <mxCell id="lOT5QitQceJ5SUjbl__B-200" value="" style="whiteSpace=wrap;html=1;aspect=fixed;fillColor=#333333;" vertex="1" parent="1">
          <mxGeometry x="1400" y="1300" width="80" height="80" as="geometry" />
        </mxCell>
        <mxCell id="lOT5QitQceJ5SUjbl__B-201" value="" style="whiteSpace=wrap;html=1;aspect=fixed;fillColor=#333333;" vertex="1" parent="1">
          <mxGeometry x="1500" y="1400" width="80" height="80" as="geometry" />
        </mxCell>
        <mxCell id="lOT5QitQceJ5SUjbl__B-202" value="" style="whiteSpace=wrap;html=1;aspect=fixed;fillColor=#333333;" vertex="1" parent="1">
          <mxGeometry x="1600" y="1400" width="80" height="80" as="geometry" />
        </mxCell>
        <mxCell id="lOT5QitQceJ5SUjbl__B-203" value="" style="whiteSpace=wrap;html=1;aspect=fixed;fillColor=#333333;" vertex="1" parent="1">
          <mxGeometry x="1600" y="1300" width="80" height="80" as="geometry" />
        </mxCell>
        <mxCell id="lOT5QitQceJ5SUjbl__B-204" value="" style="whiteSpace=wrap;html=1;aspect=fixed;fillColor=#333333;" vertex="1" parent="1">
          <mxGeometry x="1700" y="1400" width="80" height="80" as="geometry" />
        </mxCell>
        <mxCell id="lOT5QitQceJ5SUjbl__B-205" value="" style="whiteSpace=wrap;html=1;aspect=fixed;fillColor=#333333;" vertex="1" parent="1">
          <mxGeometry x="1700" y="1300" width="80" height="80" as="geometry" />
        </mxCell>
        <mxCell id="lOT5QitQceJ5SUjbl__B-206" value="" style="whiteSpace=wrap;html=1;aspect=fixed;fillColor=#333333;" vertex="1" parent="1">
          <mxGeometry x="1700" y="1200" width="80" height="80" as="geometry" />
        </mxCell>
        <mxCell id="lOT5QitQceJ5SUjbl__B-207" value="" style="whiteSpace=wrap;html=1;aspect=fixed;fillColor=#333333;" vertex="1" parent="1">
          <mxGeometry x="1800" y="1400" width="80" height="80" as="geometry" />
        </mxCell>
        <mxCell id="lOT5QitQceJ5SUjbl__B-208" value="" style="whiteSpace=wrap;html=1;aspect=fixed;fillColor=#333333;" vertex="1" parent="1">
          <mxGeometry x="2100" y="1410" width="80" height="80" as="geometry" />
        </mxCell>
        <mxCell id="lOT5QitQceJ5SUjbl__B-209" value="" style="whiteSpace=wrap;html=1;aspect=fixed;fillColor=#333333;" vertex="1" parent="1">
          <mxGeometry x="2100" y="1320" width="80" height="80" as="geometry" />
        </mxCell>
        <mxCell id="lOT5QitQceJ5SUjbl__B-212" value="" style="whiteSpace=wrap;html=1;aspect=fixed;fillColor=#333333;" vertex="1" parent="1">
          <mxGeometry x="2200" y="1410" width="80" height="80" as="geometry" />
        </mxCell>
        <mxCell id="lOT5QitQceJ5SUjbl__B-213" value="" style="whiteSpace=wrap;html=1;aspect=fixed;fillColor=#333333;" vertex="1" parent="1">
          <mxGeometry x="2200" y="1320" width="80" height="80" as="geometry" />
        </mxCell>
        <mxCell id="lOT5QitQceJ5SUjbl__B-214" value="" style="whiteSpace=wrap;html=1;aspect=fixed;fillColor=#333333;" vertex="1" parent="1">
          <mxGeometry x="2300" y="1410" width="80" height="80" as="geometry" />
        </mxCell>
        <mxCell id="lOT5QitQceJ5SUjbl__B-215" value="" style="whiteSpace=wrap;html=1;aspect=fixed;fillColor=#333333;" vertex="1" parent="1">
          <mxGeometry x="2300" y="1320" width="80" height="80" as="geometry" />
        </mxCell>
        <mxCell id="lOT5QitQceJ5SUjbl__B-216" value="" style="whiteSpace=wrap;html=1;aspect=fixed;fillColor=#333333;" vertex="1" parent="1">
          <mxGeometry x="2300" y="1230" width="80" height="80" as="geometry" />
        </mxCell>
        <mxCell id="lOT5QitQceJ5SUjbl__B-217" value="" style="whiteSpace=wrap;html=1;aspect=fixed;fillColor=#333333;" vertex="1" parent="1">
          <mxGeometry x="2400" y="1410" width="80" height="80" as="geometry" />
        </mxCell>
        <mxCell id="lOT5QitQceJ5SUjbl__B-218" value="" style="whiteSpace=wrap;html=1;aspect=fixed;fillColor=#333333;" vertex="1" parent="1">
          <mxGeometry x="2400" y="1320" width="80" height="80" as="geometry" />
        </mxCell>
        <mxCell id="lOT5QitQceJ5SUjbl__B-219" value="" style="whiteSpace=wrap;html=1;aspect=fixed;fillColor=#333333;" vertex="1" parent="1">
          <mxGeometry x="2400" y="1230" width="80" height="80" as="geometry" />
        </mxCell>
        <mxCell id="lOT5QitQceJ5SUjbl__B-223" value="" style="whiteSpace=wrap;html=1;aspect=fixed;fillColor=#333333;" vertex="1" parent="1">
          <mxGeometry x="2500" y="1410" width="80" height="80" as="geometry" />
        </mxCell>
        <mxCell id="lOT5QitQceJ5SUjbl__B-224" value="" style="whiteSpace=wrap;html=1;aspect=fixed;fillColor=#333333;" vertex="1" parent="1">
          <mxGeometry x="2500" y="1320" width="80" height="80" as="geometry" />
        </mxCell>
        <mxCell id="lOT5QitQceJ5SUjbl__B-225" value="" style="whiteSpace=wrap;html=1;aspect=fixed;fillColor=#333333;" vertex="1" parent="1">
          <mxGeometry x="2500" y="1230" width="80" height="80" as="geometry" />
        </mxCell>
        <mxCell id="lOT5QitQceJ5SUjbl__B-226" value="" style="whiteSpace=wrap;html=1;aspect=fixed;fillColor=#333333;" vertex="1" parent="1">
          <mxGeometry x="2600" y="1410" width="80" height="80" as="geometry" />
        </mxCell>
        <mxCell id="lOT5QitQceJ5SUjbl__B-230" style="edgeStyle=orthogonalEdgeStyle;rounded=0;orthogonalLoop=1;jettySize=auto;html=1;" edge="1" parent="1" source="lOT5QitQceJ5SUjbl__B-227">
          <mxGeometry relative="1" as="geometry">
            <mxPoint x="2450" y="1145" as="targetPoint" />
          </mxGeometry>
        </mxCell>
        <mxCell id="lOT5QitQceJ5SUjbl__B-227" value="&lt;font style=&quot;font-size: 20px;&quot;&gt;Kelompok Umur&lt;/font&gt;" style="text;html=1;align=center;verticalAlign=middle;whiteSpace=wrap;rounded=0;fontStyle=1" vertex="1" parent="1">
          <mxGeometry x="1250" y="1130" width="170" height="30" as="geometry" />
        </mxCell>
        <mxCell id="lOT5QitQceJ5SUjbl__B-233" style="edgeStyle=orthogonalEdgeStyle;rounded=0;orthogonalLoop=1;jettySize=auto;html=1;" edge="1" parent="1" source="lOT5QitQceJ5SUjbl__B-232">
          <mxGeometry relative="1" as="geometry">
            <mxPoint x="1302" y="1430" as="targetPoint" />
          </mxGeometry>
        </mxCell>
        <mxCell id="lOT5QitQceJ5SUjbl__B-232" value="&lt;font style=&quot;font-size: 20px;&quot;&gt;Titik Data&lt;/font&gt;" style="text;html=1;align=center;verticalAlign=middle;whiteSpace=wrap;rounded=0;fontStyle=1" vertex="1" parent="1">
          <mxGeometry x="1217" y="1180" width="170" height="30" as="geometry" />
        </mxCell>
        <mxCell id="lnbPMf65tQMJrt6chJXS-1" value="&lt;span style=&quot;font-size: 24px;&quot;&gt;5 Hyperparameter Tuning&lt;/span&gt;&lt;br&gt;&lt;div&gt;______________________________&lt;span style=&quot;background-color: initial;&quot;&gt;______________________________&lt;/span&gt;&lt;span style=&quot;background-color: initial;&quot;&gt;______________________________&lt;/span&gt;&lt;span style=&quot;background-color: initial;&quot;&gt;______________________________&lt;/span&gt;&lt;/div&gt;" style="text;html=1;align=center;verticalAlign=middle;whiteSpace=wrap;rounded=0;fontStyle=1" vertex="1" parent="1">
          <mxGeometry x="36.25" y="3400" width="810" height="30" as="geometry" />
        </mxCell>
        <mxCell id="lnbPMf65tQMJrt6chJXS-73" style="edgeStyle=orthogonalEdgeStyle;rounded=0;orthogonalLoop=1;jettySize=auto;html=1;" edge="1" parent="1" source="lnbPMf65tQMJrt6chJXS-3" target="lnbPMf65tQMJrt6chJXS-64">
          <mxGeometry relative="1" as="geometry" />
        </mxCell>
        <mxCell id="lnbPMf65tQMJrt6chJXS-3" value="&lt;i&gt;Grid &lt;/i&gt;Parameter" style="shape=note;whiteSpace=wrap;html=1;backgroundOutline=1;darkOpacity=0.05;" vertex="1" parent="1">
          <mxGeometry x="36.25" y="3850" width="80" height="100" as="geometry" />
        </mxCell>
        <mxCell id="lnbPMf65tQMJrt6chJXS-10" style="edgeStyle=orthogonalEdgeStyle;rounded=0;orthogonalLoop=1;jettySize=auto;html=1;" edge="1" parent="1" source="lnbPMf65tQMJrt6chJXS-5" target="lnbPMf65tQMJrt6chJXS-7">
          <mxGeometry relative="1" as="geometry" />
        </mxCell>
        <mxCell id="lnbPMf65tQMJrt6chJXS-5" value="Ambil Jumlah Layer" style="rounded=1;whiteSpace=wrap;html=1;" vertex="1" parent="1">
          <mxGeometry x="328.75" y="3590" width="120" height="60" as="geometry" />
        </mxCell>
        <mxCell id="lnbPMf65tQMJrt6chJXS-6" value="Jumlah layer:&lt;div&gt;- n_dense&lt;/div&gt;&lt;div&gt;- n_conv&lt;/div&gt;" style="text;html=1;align=left;verticalAlign=middle;whiteSpace=wrap;rounded=0;" vertex="1" parent="1">
          <mxGeometry x="328.75" y="3670" width="99" height="30" as="geometry" />
        </mxCell>
        <mxCell id="lnbPMf65tQMJrt6chJXS-7" value="Ambil Jenis Layer" style="rounded=1;whiteSpace=wrap;html=1;" vertex="1" parent="1">
          <mxGeometry x="503.75" y="3590" width="120" height="60" as="geometry" />
        </mxCell>
        <mxCell id="lnbPMf65tQMJrt6chJXS-8" value="Jumlah layer:&lt;div&gt;- dense_layer&lt;/div&gt;&lt;div&gt;- conv_layer&lt;/div&gt;" style="text;html=1;align=left;verticalAlign=middle;whiteSpace=wrap;rounded=0;" vertex="1" parent="1">
          <mxGeometry x="503.75" y="3670" width="99" height="30" as="geometry" />
        </mxCell>
        <mxCell id="lnbPMf65tQMJrt6chJXS-12" value="" style="shape=note;whiteSpace=wrap;html=1;backgroundOutline=1;darkOpacity=0.05;" vertex="1" parent="1">
          <mxGeometry x="706.25" y="3540" width="80" height="100" as="geometry" />
        </mxCell>
        <mxCell id="lnbPMf65tQMJrt6chJXS-13" value="" style="shape=note;whiteSpace=wrap;html=1;backgroundOutline=1;darkOpacity=0.05;" vertex="1" parent="1">
          <mxGeometry x="716.25" y="3550" width="80" height="100" as="geometry" />
        </mxCell>
        <mxCell id="lnbPMf65tQMJrt6chJXS-14" value="" style="shape=note;whiteSpace=wrap;html=1;backgroundOutline=1;darkOpacity=0.05;" vertex="1" parent="1">
          <mxGeometry x="726.25" y="3560" width="80" height="100" as="geometry" />
        </mxCell>
        <mxCell id="lnbPMf65tQMJrt6chJXS-21" style="edgeStyle=orthogonalEdgeStyle;rounded=0;orthogonalLoop=1;jettySize=auto;html=1;" edge="1" parent="1" source="lnbPMf65tQMJrt6chJXS-9" target="lnbPMf65tQMJrt6chJXS-20">
          <mxGeometry relative="1" as="geometry" />
        </mxCell>
        <mxCell id="lnbPMf65tQMJrt6chJXS-22" value="Jenis Layer" style="edgeLabel;html=1;align=center;verticalAlign=middle;resizable=0;points=[];" connectable="0" vertex="1" parent="lnbPMf65tQMJrt6chJXS-21">
          <mxGeometry x="-0.0024" y="2" relative="1" as="geometry">
            <mxPoint as="offset" />
          </mxGeometry>
        </mxCell>
        <mxCell id="lnbPMf65tQMJrt6chJXS-9" value="Kombinasi Jenis Layer" style="shape=note;whiteSpace=wrap;html=1;backgroundOutline=1;darkOpacity=0.05;" vertex="1" parent="1">
          <mxGeometry x="736.25" y="3570" width="80" height="100" as="geometry" />
        </mxCell>
        <mxCell id="lnbPMf65tQMJrt6chJXS-15" style="edgeStyle=orthogonalEdgeStyle;rounded=0;orthogonalLoop=1;jettySize=auto;html=1;" edge="1" parent="1" source="lnbPMf65tQMJrt6chJXS-7" target="lnbPMf65tQMJrt6chJXS-9">
          <mxGeometry relative="1" as="geometry" />
        </mxCell>
        <mxCell id="lnbPMf65tQMJrt6chJXS-18" value="Permutasi" style="edgeLabel;html=1;align=center;verticalAlign=middle;resizable=0;points=[];" connectable="0" vertex="1" parent="lnbPMf65tQMJrt6chJXS-15">
          <mxGeometry x="-0.2336" relative="1" as="geometry">
            <mxPoint as="offset" />
          </mxGeometry>
        </mxCell>
        <mxCell id="lnbPMf65tQMJrt6chJXS-16" value="&lt;font style=&quot;font-size: 10px;&quot;&gt;Sebanyak Jumlah Layer&lt;/font&gt;" style="text;html=1;align=center;verticalAlign=middle;whiteSpace=wrap;rounded=0;" vertex="1" parent="1">
          <mxGeometry x="691.25" y="3500" width="150" height="30" as="geometry" />
        </mxCell>
        <mxCell id="lnbPMf65tQMJrt6chJXS-17" value="" style="endArrow=none;html=1;rounded=0;" edge="1" parent="1">
          <mxGeometry width="50" height="50" relative="1" as="geometry">
            <mxPoint x="706.25" y="3534" as="sourcePoint" />
            <mxPoint x="826.25" y="3534" as="targetPoint" />
            <Array as="points">
              <mxPoint x="706.25" y="3524" />
              <mxPoint x="766.25" y="3524" />
              <mxPoint x="826.25" y="3524" />
            </Array>
          </mxGeometry>
        </mxCell>
        <mxCell id="lnbPMf65tQMJrt6chJXS-23" style="edgeStyle=orthogonalEdgeStyle;rounded=0;orthogonalLoop=1;jettySize=auto;html=1;dashed=1;" edge="1" parent="1" source="lnbPMf65tQMJrt6chJXS-19" target="lnbPMf65tQMJrt6chJXS-20">
          <mxGeometry relative="1" as="geometry" />
        </mxCell>
        <mxCell id="lnbPMf65tQMJrt6chJXS-24" value="Nilai Parameter" style="edgeLabel;html=1;align=center;verticalAlign=middle;resizable=0;points=[];" connectable="0" vertex="1" parent="lnbPMf65tQMJrt6chJXS-23">
          <mxGeometry x="-0.0567" y="-1" relative="1" as="geometry">
            <mxPoint as="offset" />
          </mxGeometry>
        </mxCell>
        <mxCell id="lnbPMf65tQMJrt6chJXS-71" style="edgeStyle=orthogonalEdgeStyle;rounded=0;orthogonalLoop=1;jettySize=auto;html=1;dashed=1;" edge="1" parent="1" source="lnbPMf65tQMJrt6chJXS-19" target="lnbPMf65tQMJrt6chJXS-29">
          <mxGeometry relative="1" as="geometry" />
        </mxCell>
        <mxCell id="lnbPMf65tQMJrt6chJXS-72" value="Nilai Default&lt;div&gt;Parameter&lt;/div&gt;" style="edgeLabel;html=1;align=center;verticalAlign=middle;resizable=0;points=[];" connectable="0" vertex="1" parent="lnbPMf65tQMJrt6chJXS-71">
          <mxGeometry x="-0.1937" y="-1" relative="1" as="geometry">
            <mxPoint as="offset" />
          </mxGeometry>
        </mxCell>
        <mxCell id="lnbPMf65tQMJrt6chJXS-19" value="Data Sumber Nilai Parameter tiap Layer" style="shape=note;whiteSpace=wrap;html=1;backgroundOutline=1;darkOpacity=0.05;" vertex="1" parent="1">
          <mxGeometry x="731.25" y="3885" width="90" height="110" as="geometry" />
        </mxCell>
        <mxCell id="lnbPMf65tQMJrt6chJXS-27" style="edgeStyle=orthogonalEdgeStyle;rounded=0;orthogonalLoop=1;jettySize=auto;html=1;" edge="1" parent="1" source="lnbPMf65tQMJrt6chJXS-20" target="lnbPMf65tQMJrt6chJXS-26">
          <mxGeometry relative="1" as="geometry" />
        </mxCell>
        <mxCell id="lnbPMf65tQMJrt6chJXS-20" value="Ambil jenis layer &amp;amp; nilai parameter dari layer yang sesuai" style="rounded=1;whiteSpace=wrap;html=1;" vertex="1" parent="1">
          <mxGeometry x="716.25" y="3750" width="120" height="60" as="geometry" />
        </mxCell>
        <mxCell id="lnbPMf65tQMJrt6chJXS-25" value="Ambil nilai parameter dari Parameter Grid" style="rounded=1;whiteSpace=wrap;html=1;" vertex="1" parent="1">
          <mxGeometry x="331.25" y="3750" width="120" height="60" as="geometry" />
        </mxCell>
        <mxCell id="lnbPMf65tQMJrt6chJXS-28" style="edgeStyle=orthogonalEdgeStyle;rounded=0;orthogonalLoop=1;jettySize=auto;html=1;" edge="1" parent="1" source="lnbPMf65tQMJrt6chJXS-26" target="lnbPMf65tQMJrt6chJXS-25">
          <mxGeometry relative="1" as="geometry" />
        </mxCell>
        <mxCell id="lnbPMf65tQMJrt6chJXS-31" value="Ya" style="edgeLabel;html=1;align=center;verticalAlign=middle;resizable=0;points=[];" connectable="0" vertex="1" parent="lnbPMf65tQMJrt6chJXS-28">
          <mxGeometry x="0.0609" y="5" relative="1" as="geometry">
            <mxPoint as="offset" />
          </mxGeometry>
        </mxCell>
        <mxCell id="lnbPMf65tQMJrt6chJXS-30" style="edgeStyle=orthogonalEdgeStyle;rounded=0;orthogonalLoop=1;jettySize=auto;html=1;" edge="1" parent="1" source="lnbPMf65tQMJrt6chJXS-26" target="lnbPMf65tQMJrt6chJXS-29">
          <mxGeometry relative="1" as="geometry" />
        </mxCell>
        <mxCell id="lnbPMf65tQMJrt6chJXS-32" value="Tidak" style="edgeLabel;html=1;align=center;verticalAlign=middle;resizable=0;points=[];" connectable="0" vertex="1" parent="lnbPMf65tQMJrt6chJXS-30">
          <mxGeometry x="-0.3391" y="2" relative="1" as="geometry">
            <mxPoint y="1" as="offset" />
          </mxGeometry>
        </mxCell>
        <mxCell id="lnbPMf65tQMJrt6chJXS-26" value="Parameter&lt;div&gt;ada pada Grid Parameter?&lt;/div&gt;" style="rhombus;whiteSpace=wrap;html=1;" vertex="1" parent="1">
          <mxGeometry x="508.75" y="3727.5" width="115" height="105" as="geometry" />
        </mxCell>
        <mxCell id="lnbPMf65tQMJrt6chJXS-40" style="edgeStyle=orthogonalEdgeStyle;rounded=0;orthogonalLoop=1;jettySize=auto;html=1;" edge="1" parent="1" source="lnbPMf65tQMJrt6chJXS-29" target="lnbPMf65tQMJrt6chJXS-38">
          <mxGeometry relative="1" as="geometry" />
        </mxCell>
        <mxCell id="lnbPMf65tQMJrt6chJXS-29" value="Ambil nilai default dari parameter" style="rounded=1;whiteSpace=wrap;html=1;" vertex="1" parent="1">
          <mxGeometry x="506.25" y="3910" width="120" height="60" as="geometry" />
        </mxCell>
        <mxCell id="lnbPMf65tQMJrt6chJXS-36" value="" style="shape=note;whiteSpace=wrap;html=1;backgroundOutline=1;darkOpacity=0.05;" vertex="1" parent="1">
          <mxGeometry x="331.25" y="3870" width="80" height="100" as="geometry" />
        </mxCell>
        <mxCell id="lnbPMf65tQMJrt6chJXS-37" value="" style="shape=note;whiteSpace=wrap;html=1;backgroundOutline=1;darkOpacity=0.05;" vertex="1" parent="1">
          <mxGeometry x="341.25" y="3880" width="80" height="100" as="geometry" />
        </mxCell>
        <mxCell id="lnbPMf65tQMJrt6chJXS-56" style="edgeStyle=orthogonalEdgeStyle;rounded=0;orthogonalLoop=1;jettySize=auto;html=1;" edge="1" parent="1" source="lnbPMf65tQMJrt6chJXS-38" target="lnbPMf65tQMJrt6chJXS-46">
          <mxGeometry relative="1" as="geometry" />
        </mxCell>
        <mxCell id="lnbPMf65tQMJrt6chJXS-38" value="Kombinasi Parameter Layer" style="shape=note;whiteSpace=wrap;html=1;backgroundOutline=1;darkOpacity=0.05;" vertex="1" parent="1">
          <mxGeometry x="351.25" y="3890" width="80" height="100" as="geometry" />
        </mxCell>
        <mxCell id="lnbPMf65tQMJrt6chJXS-39" style="edgeStyle=orthogonalEdgeStyle;rounded=0;orthogonalLoop=1;jettySize=auto;html=1;" edge="1" parent="1" source="lnbPMf65tQMJrt6chJXS-25" target="lnbPMf65tQMJrt6chJXS-38">
          <mxGeometry relative="1" as="geometry" />
        </mxCell>
        <mxCell id="lnbPMf65tQMJrt6chJXS-43" style="edgeStyle=orthogonalEdgeStyle;rounded=0;orthogonalLoop=1;jettySize=auto;html=1;" edge="1" parent="1" source="lnbPMf65tQMJrt6chJXS-42" target="lnbPMf65tQMJrt6chJXS-20">
          <mxGeometry relative="1" as="geometry">
            <Array as="points">
              <mxPoint x="876.25" y="4080" />
              <mxPoint x="876.25" y="3780" />
            </Array>
          </mxGeometry>
        </mxCell>
        <mxCell id="lnbPMf65tQMJrt6chJXS-44" value="Tidak" style="edgeLabel;html=1;align=center;verticalAlign=middle;resizable=0;points=[];" connectable="0" vertex="1" parent="lnbPMf65tQMJrt6chJXS-43">
          <mxGeometry x="-0.4399" y="3" relative="1" as="geometry">
            <mxPoint as="offset" />
          </mxGeometry>
        </mxCell>
        <mxCell id="lnbPMf65tQMJrt6chJXS-59" style="edgeStyle=orthogonalEdgeStyle;rounded=0;orthogonalLoop=1;jettySize=auto;html=1;" edge="1" parent="1" source="lnbPMf65tQMJrt6chJXS-42" target="lnbPMf65tQMJrt6chJXS-58">
          <mxGeometry relative="1" as="geometry" />
        </mxCell>
        <mxCell id="lnbPMf65tQMJrt6chJXS-60" value="Ya" style="edgeLabel;html=1;align=center;verticalAlign=middle;resizable=0;points=[];" connectable="0" vertex="1" parent="lnbPMf65tQMJrt6chJXS-59">
          <mxGeometry x="-0.0333" y="-5" relative="1" as="geometry">
            <mxPoint as="offset" />
          </mxGeometry>
        </mxCell>
        <mxCell id="lnbPMf65tQMJrt6chJXS-42" value="Semua layer memiliki kombinasi parameter?" style="rhombus;whiteSpace=wrap;html=1;" vertex="1" parent="1">
          <mxGeometry x="541.25" y="4027.5" width="115" height="105" as="geometry" />
        </mxCell>
        <mxCell id="lnbPMf65tQMJrt6chJXS-57" style="edgeStyle=orthogonalEdgeStyle;rounded=0;orthogonalLoop=1;jettySize=auto;html=1;" edge="1" parent="1" source="lnbPMf65tQMJrt6chJXS-46" target="lnbPMf65tQMJrt6chJXS-42">
          <mxGeometry relative="1" as="geometry" />
        </mxCell>
        <mxCell id="lnbPMf65tQMJrt6chJXS-46" value="Simpan kombinasi parameter layer" style="rounded=1;whiteSpace=wrap;html=1;" vertex="1" parent="1">
          <mxGeometry x="331.25" y="4050" width="120" height="60" as="geometry" />
        </mxCell>
        <mxCell id="lnbPMf65tQMJrt6chJXS-50" value="Nilai Parameter:&lt;div&gt;- filters&lt;/div&gt;&lt;div&gt;- kernel_size&lt;/div&gt;&lt;div&gt;- pool_size&lt;/div&gt;&lt;div&gt;- units&lt;/div&gt;&lt;div&gt;- activation&lt;/div&gt;" style="text;html=1;align=left;verticalAlign=middle;whiteSpace=wrap;rounded=0;" vertex="1" parent="1">
          <mxGeometry x="231.25" y="3790" width="100" height="30" as="geometry" />
        </mxCell>
        <mxCell id="lnbPMf65tQMJrt6chJXS-63" style="edgeStyle=orthogonalEdgeStyle;rounded=0;orthogonalLoop=1;jettySize=auto;html=1;" edge="1" parent="1" source="lnbPMf65tQMJrt6chJXS-53" target="lnbPMf65tQMJrt6chJXS-5">
          <mxGeometry relative="1" as="geometry" />
        </mxCell>
        <mxCell id="lnbPMf65tQMJrt6chJXS-53" value="Mulai" style="ellipse;whiteSpace=wrap;html=1;aspect=fixed;" vertex="1" parent="1">
          <mxGeometry x="231.25" y="3595" width="50" height="50" as="geometry" />
        </mxCell>
        <mxCell id="lnbPMf65tQMJrt6chJXS-62" style="edgeStyle=orthogonalEdgeStyle;rounded=0;orthogonalLoop=1;jettySize=auto;html=1;" edge="1" parent="1" source="lnbPMf65tQMJrt6chJXS-58" target="lnbPMf65tQMJrt6chJXS-61">
          <mxGeometry relative="1" as="geometry" />
        </mxCell>
        <mxCell id="lnbPMf65tQMJrt6chJXS-58" value="Kombinasikan kombinasi parameter satu layer dengan kombinasi parameter layer lainnya" style="rounded=1;whiteSpace=wrap;html=1;" vertex="1" parent="1">
          <mxGeometry x="526.25" y="4240" width="145" height="60" as="geometry" />
        </mxCell>
        <mxCell id="lnbPMf65tQMJrt6chJXS-61" value="Selesai" style="ellipse;whiteSpace=wrap;html=1;aspect=fixed;" vertex="1" parent="1">
          <mxGeometry x="736.25" y="4245" width="50" height="50" as="geometry" />
        </mxCell>
        <mxCell id="lnbPMf65tQMJrt6chJXS-66" value="Fungsi get_schema_combination" style="text;html=1;align=center;verticalAlign=middle;whiteSpace=wrap;rounded=0;" vertex="1" parent="1">
          <mxGeometry x="237.75" y="3500" width="190" height="30" as="geometry" />
        </mxCell>
        <mxCell id="lnbPMf65tQMJrt6chJXS-68" value="Kombinasi Hyperparameter" style="shape=note;whiteSpace=wrap;html=1;backgroundOutline=1;darkOpacity=0.05;" vertex="1" parent="1">
          <mxGeometry x="966.25" y="3850" width="90" height="100" as="geometry" />
        </mxCell>
        <mxCell id="JP8kJ2886w8WSLI2o2VG-1" value="&lt;span style=&quot;font-size: 24px;&quot;&gt;4 Pengembangan Model Machine Learning&lt;/span&gt;&lt;br&gt;&lt;div&gt;______________________________&lt;span style=&quot;background-color: initial;&quot;&gt;______________________________&lt;/span&gt;&lt;span style=&quot;background-color: initial;&quot;&gt;______________________________&lt;/span&gt;&lt;span style=&quot;background-color: initial;&quot;&gt;______________________________&lt;/span&gt;&lt;/div&gt;" style="text;html=1;align=center;verticalAlign=middle;whiteSpace=wrap;rounded=0;fontStyle=1" vertex="1" parent="1">
          <mxGeometry x="26.25" y="2230" width="810" height="30" as="geometry" />
        </mxCell>
        <mxCell id="JP8kJ2886w8WSLI2o2VG-6" value="Preparasi Data Untuk &lt;i&gt;Input &lt;/i&gt;Model" style="text;html=1;align=left;verticalAlign=middle;whiteSpace=wrap;rounded=0;" vertex="1" parent="1">
          <mxGeometry x="1423.87" y="2320" width="191.25" height="30" as="geometry" />
        </mxCell>
        <mxCell id="JP8kJ2886w8WSLI2o2VG-17" value="" style="rounded=0;whiteSpace=wrap;html=1;fillColor=#6666FF;" vertex="1" parent="1">
          <mxGeometry x="2118" y="2441.43" width="60" height="180" as="geometry" />
        </mxCell>
        <mxCell id="JP8kJ2886w8WSLI2o2VG-18" value="" style="rounded=0;whiteSpace=wrap;html=1;fillColor=#FF9999;" vertex="1" parent="1">
          <mxGeometry x="2193" y="2581.43" width="60" height="40" as="geometry" />
        </mxCell>
        <mxCell id="JP8kJ2886w8WSLI2o2VG-19" value="" style="endArrow=none;html=1;rounded=0;" edge="1" parent="1">
          <mxGeometry width="50" height="50" relative="1" as="geometry">
            <mxPoint x="2083" y="2621.43" as="sourcePoint" />
            <mxPoint x="2083" y="2391.43" as="targetPoint" />
          </mxGeometry>
        </mxCell>
        <mxCell id="JP8kJ2886w8WSLI2o2VG-20" value="" style="endArrow=none;html=1;rounded=0;" edge="1" parent="1">
          <mxGeometry width="50" height="50" relative="1" as="geometry">
            <mxPoint x="2083" y="2621.43" as="sourcePoint" />
            <mxPoint x="2303" y="2621.43" as="targetPoint" />
          </mxGeometry>
        </mxCell>
        <mxCell id="JP8kJ2886w8WSLI2o2VG-21" value="" style="rounded=0;whiteSpace=wrap;html=1;fillColor=#6666FF;" vertex="1" parent="1">
          <mxGeometry x="2694.25" y="2440" width="60" height="180" as="geometry" />
        </mxCell>
        <mxCell id="JP8kJ2886w8WSLI2o2VG-22" value="" style="rounded=0;whiteSpace=wrap;html=1;fillColor=#FF9999;" vertex="1" parent="1">
          <mxGeometry x="2769.25" y="2580" width="60" height="40" as="geometry" />
        </mxCell>
        <mxCell id="JP8kJ2886w8WSLI2o2VG-23" value="" style="endArrow=none;html=1;rounded=0;" edge="1" parent="1">
          <mxGeometry width="50" height="50" relative="1" as="geometry">
            <mxPoint x="2659.25" y="2620" as="sourcePoint" />
            <mxPoint x="2659.25" y="2390" as="targetPoint" />
          </mxGeometry>
        </mxCell>
        <mxCell id="JP8kJ2886w8WSLI2o2VG-24" value="" style="endArrow=none;html=1;rounded=0;" edge="1" parent="1">
          <mxGeometry width="50" height="50" relative="1" as="geometry">
            <mxPoint x="2659.25" y="2620" as="sourcePoint" />
            <mxPoint x="2879.25" y="2620" as="targetPoint" />
          </mxGeometry>
        </mxCell>
        <mxCell id="JP8kJ2886w8WSLI2o2VG-25" value="" style="rounded=0;whiteSpace=wrap;html=1;fillColor=#FF3333;" vertex="1" parent="1">
          <mxGeometry x="2769.25" y="2441.43" width="60" height="140" as="geometry" />
        </mxCell>
        <mxCell id="JP8kJ2886w8WSLI2o2VG-26" value="" style="endArrow=classic;html=1;rounded=0;" edge="1" parent="1">
          <mxGeometry width="50" height="50" relative="1" as="geometry">
            <mxPoint x="2293" y="2511.43" as="sourcePoint" />
            <mxPoint x="2653" y="2511.43" as="targetPoint" />
          </mxGeometry>
        </mxCell>
        <mxCell id="JP8kJ2886w8WSLI2o2VG-27" value="SMOTE-NC" style="edgeLabel;html=1;align=center;verticalAlign=middle;resizable=0;points=[];" connectable="0" vertex="1" parent="JP8kJ2886w8WSLI2o2VG-26">
          <mxGeometry x="-0.0566" relative="1" as="geometry">
            <mxPoint as="offset" />
          </mxGeometry>
        </mxCell>
        <mxCell id="JP8kJ2886w8WSLI2o2VG-28" value="" style="endArrow=none;html=1;rounded=0;" edge="1" parent="1">
          <mxGeometry width="50" height="50" relative="1" as="geometry">
            <mxPoint x="2349.25" y="2920" as="sourcePoint" />
            <mxPoint x="2349.25" y="2690" as="targetPoint" />
          </mxGeometry>
        </mxCell>
        <mxCell id="JP8kJ2886w8WSLI2o2VG-29" value="" style="endArrow=none;html=1;rounded=0;" edge="1" parent="1">
          <mxGeometry width="50" height="50" relative="1" as="geometry">
            <mxPoint x="2349.25" y="2920" as="sourcePoint" />
            <mxPoint x="2593" y="2920" as="targetPoint" />
          </mxGeometry>
        </mxCell>
        <mxCell id="JP8kJ2886w8WSLI2o2VG-30" value="" style="ellipse;whiteSpace=wrap;html=1;aspect=fixed;fillColor=#6666FF;" vertex="1" parent="1">
          <mxGeometry x="2382" y="2721" width="11" height="11" as="geometry" />
        </mxCell>
        <mxCell id="JP8kJ2886w8WSLI2o2VG-31" value="" style="ellipse;whiteSpace=wrap;html=1;aspect=fixed;fillColor=#6666FF;" vertex="1" parent="1">
          <mxGeometry x="2371" y="2811" width="11" height="11" as="geometry" />
        </mxCell>
        <mxCell id="JP8kJ2886w8WSLI2o2VG-32" value="" style="ellipse;whiteSpace=wrap;html=1;aspect=fixed;fillColor=#6666FF;" vertex="1" parent="1">
          <mxGeometry x="2382" y="2751" width="11" height="11" as="geometry" />
        </mxCell>
        <mxCell id="JP8kJ2886w8WSLI2o2VG-33" value="" style="ellipse;whiteSpace=wrap;html=1;aspect=fixed;fillColor=#6666FF;" vertex="1" parent="1">
          <mxGeometry x="2360" y="2790" width="11" height="11" as="geometry" />
        </mxCell>
        <mxCell id="JP8kJ2886w8WSLI2o2VG-34" value="" style="ellipse;whiteSpace=wrap;html=1;aspect=fixed;fillColor=#6666FF;" vertex="1" parent="1">
          <mxGeometry x="2423" y="2776" width="11" height="11" as="geometry" />
        </mxCell>
        <mxCell id="JP8kJ2886w8WSLI2o2VG-35" value="" style="ellipse;whiteSpace=wrap;html=1;aspect=fixed;fillColor=#6666FF;" vertex="1" parent="1">
          <mxGeometry x="2442" y="2711" width="11" height="11" as="geometry" />
        </mxCell>
        <mxCell id="JP8kJ2886w8WSLI2o2VG-36" value="" style="ellipse;whiteSpace=wrap;html=1;aspect=fixed;fillColor=#6666FF;" vertex="1" parent="1">
          <mxGeometry x="2442" y="2740" width="11" height="11" as="geometry" />
        </mxCell>
        <mxCell id="JP8kJ2886w8WSLI2o2VG-37" value="" style="ellipse;whiteSpace=wrap;html=1;aspect=fixed;fillColor=#6666FF;" vertex="1" parent="1">
          <mxGeometry x="2420.25" y="2711" width="11" height="11" as="geometry" />
        </mxCell>
        <mxCell id="JP8kJ2886w8WSLI2o2VG-38" value="" style="ellipse;whiteSpace=wrap;html=1;aspect=fixed;fillColor=#6666FF;" vertex="1" parent="1">
          <mxGeometry x="2382" y="2776" width="11" height="11" as="geometry" />
        </mxCell>
        <mxCell id="JP8kJ2886w8WSLI2o2VG-39" value="" style="ellipse;whiteSpace=wrap;html=1;aspect=fixed;fillColor=#6666FF;" vertex="1" parent="1">
          <mxGeometry x="2409.25" y="2732" width="11" height="11" as="geometry" />
        </mxCell>
        <mxCell id="JP8kJ2886w8WSLI2o2VG-40" value="" style="ellipse;whiteSpace=wrap;html=1;aspect=fixed;fillColor=#6666FF;" vertex="1" parent="1">
          <mxGeometry x="2403" y="2807" width="11" height="11" as="geometry" />
        </mxCell>
        <mxCell id="JP8kJ2886w8WSLI2o2VG-41" value="" style="ellipse;whiteSpace=wrap;html=1;aspect=fixed;fillColor=#6666FF;" vertex="1" parent="1">
          <mxGeometry x="2462" y="2818" width="11" height="11" as="geometry" />
        </mxCell>
        <mxCell id="JP8kJ2886w8WSLI2o2VG-42" value="" style="ellipse;whiteSpace=wrap;html=1;aspect=fixed;fillColor=#6666FF;" vertex="1" parent="1">
          <mxGeometry x="2510" y="2776" width="11" height="11" as="geometry" />
        </mxCell>
        <mxCell id="JP8kJ2886w8WSLI2o2VG-44" value="" style="ellipse;whiteSpace=wrap;html=1;aspect=fixed;fillColor=#6666FF;" vertex="1" parent="1">
          <mxGeometry x="2462" y="2779" width="11" height="11" as="geometry" />
        </mxCell>
        <mxCell id="JP8kJ2886w8WSLI2o2VG-45" value="" style="ellipse;whiteSpace=wrap;html=1;aspect=fixed;fillColor=#6666FF;" vertex="1" parent="1">
          <mxGeometry x="2431" y="2796" width="11" height="11" as="geometry" />
        </mxCell>
        <mxCell id="JP8kJ2886w8WSLI2o2VG-46" value="" style="ellipse;whiteSpace=wrap;html=1;aspect=fixed;fillColor=#6666FF;" vertex="1" parent="1">
          <mxGeometry x="2462" y="2751" width="11" height="11" as="geometry" />
        </mxCell>
        <mxCell id="JP8kJ2886w8WSLI2o2VG-47" value="" style="ellipse;whiteSpace=wrap;html=1;aspect=fixed;fillColor=#6666FF;" vertex="1" parent="1">
          <mxGeometry x="2488.25" y="2762" width="11" height="11" as="geometry" />
        </mxCell>
        <mxCell id="JP8kJ2886w8WSLI2o2VG-48" value="" style="ellipse;whiteSpace=wrap;html=1;aspect=fixed;fillColor=#6666FF;" vertex="1" parent="1">
          <mxGeometry x="2502" y="2807" width="11" height="11" as="geometry" />
        </mxCell>
        <mxCell id="JP8kJ2886w8WSLI2o2VG-49" value="" style="ellipse;whiteSpace=wrap;html=1;aspect=fixed;fillColor=#6666FF;" vertex="1" parent="1">
          <mxGeometry x="2480.25" y="2793" width="11" height="11" as="geometry" />
        </mxCell>
        <mxCell id="JP8kJ2886w8WSLI2o2VG-53" value="" style="ellipse;whiteSpace=wrap;html=1;aspect=fixed;fillColor=#6666FF;" vertex="1" parent="1">
          <mxGeometry x="2389.75" y="2829" width="11" height="11" as="geometry" />
        </mxCell>
        <mxCell id="JP8kJ2886w8WSLI2o2VG-54" value="" style="ellipse;whiteSpace=wrap;html=1;aspect=fixed;fillColor=#6666FF;" vertex="1" parent="1">
          <mxGeometry x="2428.75" y="2832" width="11" height="11" as="geometry" />
        </mxCell>
        <mxCell id="JP8kJ2886w8WSLI2o2VG-55" value="" style="ellipse;whiteSpace=wrap;html=1;aspect=fixed;fillColor=#6666FF;" vertex="1" parent="1">
          <mxGeometry x="2397.75" y="2849" width="11" height="11" as="geometry" />
        </mxCell>
        <mxCell id="JP8kJ2886w8WSLI2o2VG-56" value="" style="ellipse;whiteSpace=wrap;html=1;aspect=fixed;fillColor=#6666FF;direction=west;rotation=90;" vertex="1" parent="1">
          <mxGeometry x="2454.25" y="2829" width="11" height="11" as="geometry" />
        </mxCell>
        <mxCell id="JP8kJ2886w8WSLI2o2VG-57" value="" style="ellipse;whiteSpace=wrap;html=1;aspect=fixed;fillColor=#FF9999;direction=west;rotation=90;" vertex="1" parent="1">
          <mxGeometry x="2480.25" y="2888" width="11" height="11" as="geometry" />
        </mxCell>
        <mxCell id="JP8kJ2886w8WSLI2o2VG-58" value="" style="ellipse;whiteSpace=wrap;html=1;aspect=fixed;fillColor=#FF9999;direction=west;rotation=90;" vertex="1" parent="1">
          <mxGeometry x="2556" y="2864" width="11" height="11" as="geometry" />
        </mxCell>
        <mxCell id="JP8kJ2886w8WSLI2o2VG-60" value="" style="ellipse;whiteSpace=wrap;html=1;aspect=fixed;fillColor=#FF9999;direction=west;rotation=90;" vertex="1" parent="1">
          <mxGeometry x="2493.25" y="2828" width="11" height="11" as="geometry" />
        </mxCell>
        <mxCell id="JP8kJ2886w8WSLI2o2VG-61" value="" style="ellipse;whiteSpace=wrap;html=1;aspect=fixed;fillColor=#FF9999;direction=west;rotation=90;" vertex="1" parent="1">
          <mxGeometry x="2545" y="2830" width="11" height="11" as="geometry" />
        </mxCell>
        <mxCell id="JP8kJ2886w8WSLI2o2VG-62" value="" style="ellipse;whiteSpace=wrap;html=1;aspect=fixed;fillColor=#FF9999;direction=west;rotation=90;" vertex="1" parent="1">
          <mxGeometry x="2531" y="2897" width="11" height="11" as="geometry" />
        </mxCell>
        <mxCell id="JP8kJ2886w8WSLI2o2VG-63" value="" style="ellipse;whiteSpace=wrap;html=1;aspect=fixed;fillColor=#FF9999;direction=west;rotation=90;" vertex="1" parent="1">
          <mxGeometry x="2514.25" y="2860" width="11" height="11" as="geometry" />
        </mxCell>
        <mxCell id="JP8kJ2886w8WSLI2o2VG-64" value="" style="ellipse;whiteSpace=wrap;html=1;aspect=fixed;fillColor=#FF9999;direction=west;rotation=90;" vertex="1" parent="1">
          <mxGeometry x="2474.25" y="2864" width="11" height="11" as="geometry" />
        </mxCell>
        <mxCell id="JP8kJ2886w8WSLI2o2VG-65" value="" style="ellipse;whiteSpace=wrap;html=1;aspect=fixed;fillColor=#FF9999;direction=west;rotation=90;" vertex="1" parent="1">
          <mxGeometry x="2499" y="2896" width="11" height="11" as="geometry" />
        </mxCell>
        <mxCell id="JP8kJ2886w8WSLI2o2VG-67" value="" style="ellipse;whiteSpace=wrap;html=1;aspect=fixed;fillColor=#FF9999;direction=west;rotation=90;" vertex="1" parent="1">
          <mxGeometry x="2443.25" y="2907" width="11" height="11" as="geometry" />
        </mxCell>
        <mxCell id="JP8kJ2886w8WSLI2o2VG-72" value="" style="endArrow=none;html=1;rounded=0;" edge="1" parent="1">
          <mxGeometry width="50" height="50" relative="1" as="geometry">
            <mxPoint x="2493" y="2890" as="sourcePoint" />
            <mxPoint x="2513" y="2870" as="targetPoint" />
          </mxGeometry>
        </mxCell>
        <mxCell id="JP8kJ2886w8WSLI2o2VG-74" value="" style="endArrow=none;html=1;rounded=0;" edge="1" parent="1">
          <mxGeometry width="50" height="50" relative="1" as="geometry">
            <mxPoint x="2524.5" y="2860" as="sourcePoint" />
            <mxPoint x="2544.5" y="2840" as="targetPoint" />
          </mxGeometry>
        </mxCell>
        <mxCell id="JP8kJ2886w8WSLI2o2VG-75" value="" style="endArrow=none;html=1;rounded=0;exitX=0.101;exitY=1.169;exitDx=0;exitDy=0;exitPerimeter=0;" edge="1" parent="1">
          <mxGeometry width="50" height="50" relative="1" as="geometry">
            <mxPoint x="2527.1089999999995" y="2870.8889999999997" as="sourcePoint" />
            <mxPoint x="2553" y="2871" as="targetPoint" />
          </mxGeometry>
        </mxCell>
        <mxCell id="JP8kJ2886w8WSLI2o2VG-76" value="" style="endArrow=none;html=1;rounded=0;exitX=-0.182;exitY=0.967;exitDx=0;exitDy=0;exitPerimeter=0;entryX=1.263;entryY=0.354;entryDx=0;entryDy=0;entryPerimeter=0;" edge="1" parent="1" source="JP8kJ2886w8WSLI2o2VG-63" target="JP8kJ2886w8WSLI2o2VG-62">
          <mxGeometry width="50" height="50" relative="1" as="geometry">
            <mxPoint x="2537" y="2880" as="sourcePoint" />
            <mxPoint x="2533" y="2890" as="targetPoint" />
          </mxGeometry>
        </mxCell>
        <mxCell id="JP8kJ2886w8WSLI2o2VG-77" value="" style="endArrow=none;html=1;rounded=0;exitX=-0.242;exitY=0.199;exitDx=0;exitDy=0;entryX=1.131;entryY=0.737;entryDx=0;entryDy=0;entryPerimeter=0;exitPerimeter=0;" edge="1" parent="1" source="JP8kJ2886w8WSLI2o2VG-63" target="JP8kJ2886w8WSLI2o2VG-65">
          <mxGeometry width="50" height="50" relative="1" as="geometry">
            <mxPoint x="2535" y="2883" as="sourcePoint" />
            <mxPoint x="2545" y="2906" as="targetPoint" />
          </mxGeometry>
        </mxCell>
        <mxCell id="JP8kJ2886w8WSLI2o2VG-78" value="" style="endArrow=none;html=1;rounded=0;entryX=0.5;entryY=0;entryDx=0;entryDy=0;" edge="1" parent="1">
          <mxGeometry width="50" height="50" relative="1" as="geometry">
            <mxPoint x="2491" y="2866" as="sourcePoint" />
            <mxPoint x="2512.25" y="2865.5" as="targetPoint" />
          </mxGeometry>
        </mxCell>
        <mxCell id="JP8kJ2886w8WSLI2o2VG-79" value="" style="endArrow=none;html=1;rounded=0;entryX=1.131;entryY=0.179;entryDx=0;entryDy=0;entryPerimeter=0;" edge="1" parent="1" target="JP8kJ2886w8WSLI2o2VG-63">
          <mxGeometry width="50" height="50" relative="1" as="geometry">
            <mxPoint x="2503" y="2840" as="sourcePoint" />
            <mxPoint x="2513" y="2860" as="targetPoint" />
          </mxGeometry>
        </mxCell>
        <mxCell id="JP8kJ2886w8WSLI2o2VG-82" value="" style="ellipse;whiteSpace=wrap;html=1;aspect=fixed;fillColor=#FF3333;direction=west;rotation=90;" vertex="1" parent="1">
          <mxGeometry x="2506" y="2845" width="6" height="6" as="geometry" />
        </mxCell>
        <mxCell id="JP8kJ2886w8WSLI2o2VG-83" value="" style="ellipse;whiteSpace=wrap;html=1;aspect=fixed;fillColor=#FF3333;direction=west;rotation=90;" vertex="1" parent="1">
          <mxGeometry x="2532" y="2847" width="6" height="6" as="geometry" />
        </mxCell>
        <mxCell id="JP8kJ2886w8WSLI2o2VG-84" value="" style="ellipse;whiteSpace=wrap;html=1;aspect=fixed;fillColor=#FF3333;direction=west;rotation=90;" vertex="1" parent="1">
          <mxGeometry x="2538" y="2867" width="6" height="6" as="geometry" />
        </mxCell>
        <mxCell id="JP8kJ2886w8WSLI2o2VG-85" value="" style="ellipse;whiteSpace=wrap;html=1;aspect=fixed;fillColor=#FF3333;direction=west;rotation=90;" vertex="1" parent="1">
          <mxGeometry x="2527" y="2881" width="6" height="6" as="geometry" />
        </mxCell>
        <mxCell id="JP8kJ2886w8WSLI2o2VG-86" value="" style="ellipse;whiteSpace=wrap;html=1;aspect=fixed;fillColor=#FF3333;direction=west;rotation=90;" vertex="1" parent="1">
          <mxGeometry x="2508" y="2883" width="6" height="6" as="geometry" />
        </mxCell>
        <mxCell id="JP8kJ2886w8WSLI2o2VG-87" value="" style="ellipse;whiteSpace=wrap;html=1;aspect=fixed;fillColor=#FF3333;direction=west;rotation=90;" vertex="1" parent="1">
          <mxGeometry x="2499" y="2878" width="6" height="6" as="geometry" />
        </mxCell>
        <mxCell id="JP8kJ2886w8WSLI2o2VG-88" value="" style="ellipse;whiteSpace=wrap;html=1;aspect=fixed;fillColor=#FF3333;direction=west;rotation=90;" vertex="1" parent="1">
          <mxGeometry x="2499" y="2863" width="6" height="6" as="geometry" />
        </mxCell>
        <mxCell id="JP8kJ2886w8WSLI2o2VG-89" value="" style="endArrow=none;html=1;rounded=0;exitX=1;exitY=1;exitDx=0;exitDy=0;" edge="1" parent="1">
          <mxGeometry width="50" height="50" relative="1" as="geometry">
            <mxPoint x="2454.639087296526" y="2905.610912703474" as="sourcePoint" />
            <mxPoint x="2475" y="2877" as="targetPoint" />
          </mxGeometry>
        </mxCell>
        <mxCell id="JP8kJ2886w8WSLI2o2VG-91" value="" style="endArrow=none;html=1;rounded=0;" edge="1" parent="1">
          <mxGeometry width="50" height="50" relative="1" as="geometry">
            <mxPoint x="2463" y="2910" as="sourcePoint" />
            <mxPoint x="2493" y="2904" as="targetPoint" />
          </mxGeometry>
        </mxCell>
        <mxCell id="JP8kJ2886w8WSLI2o2VG-92" value="" style="ellipse;whiteSpace=wrap;html=1;aspect=fixed;fillColor=#FF3333;direction=west;rotation=90;" vertex="1" parent="1">
          <mxGeometry x="2462" y="2888" width="6" height="6" as="geometry" />
        </mxCell>
        <mxCell id="JP8kJ2886w8WSLI2o2VG-93" value="" style="ellipse;whiteSpace=wrap;html=1;aspect=fixed;fillColor=#FF3333;direction=west;rotation=90;" vertex="1" parent="1">
          <mxGeometry x="2475" y="2904" width="6" height="6" as="geometry" />
        </mxCell>
        <mxCell id="JP8kJ2886w8WSLI2o2VG-95" value="" style="endArrow=classic;html=1;rounded=0;dashed=1;" edge="1" parent="1">
          <mxGeometry width="50" height="50" relative="1" as="geometry">
            <mxPoint x="2463" y="2530" as="sourcePoint" />
            <mxPoint x="2463" y="2700" as="targetPoint" />
          </mxGeometry>
        </mxCell>
        <mxCell id="JP8kJ2886w8WSLI2o2VG-96" value="" style="whiteSpace=wrap;html=1;aspect=fixed;fillColor=#9999FF;" vertex="1" parent="1">
          <mxGeometry x="2583" y="2701" width="10" height="10" as="geometry" />
        </mxCell>
        <mxCell id="JP8kJ2886w8WSLI2o2VG-97" value="" style="whiteSpace=wrap;html=1;aspect=fixed;fillColor=#FF9999;" vertex="1" parent="1">
          <mxGeometry x="2583" y="2717" width="10" height="10" as="geometry" />
        </mxCell>
        <mxCell id="JP8kJ2886w8WSLI2o2VG-98" value="" style="whiteSpace=wrap;html=1;aspect=fixed;fillColor=#FF0000;" vertex="1" parent="1">
          <mxGeometry x="2583" y="2733" width="10" height="10" as="geometry" />
        </mxCell>
        <mxCell id="JP8kJ2886w8WSLI2o2VG-99" value="&lt;font style=&quot;font-size: 8px;&quot;&gt;Kategori 1&lt;/font&gt;" style="text;html=1;align=center;verticalAlign=middle;whiteSpace=wrap;rounded=0;" vertex="1" parent="1">
          <mxGeometry x="2593" y="2690" width="60" height="30" as="geometry" />
        </mxCell>
        <mxCell id="JP8kJ2886w8WSLI2o2VG-100" value="&lt;font style=&quot;font-size: 8px;&quot;&gt;Kategori 2 (Asli)&lt;/font&gt;" style="text;html=1;align=center;verticalAlign=middle;whiteSpace=wrap;rounded=0;" vertex="1" parent="1">
          <mxGeometry x="2603" y="2706" width="60" height="30" as="geometry" />
        </mxCell>
        <mxCell id="JP8kJ2886w8WSLI2o2VG-101" value="&lt;font style=&quot;font-size: 8px;&quot;&gt;Kategori 2 (Sintetis)&lt;/font&gt;" style="text;html=1;align=center;verticalAlign=middle;whiteSpace=wrap;rounded=0;" vertex="1" parent="1">
          <mxGeometry x="2600" y="2723" width="80" height="30" as="geometry" />
        </mxCell>
        <mxCell id="JP8kJ2886w8WSLI2o2VG-107" style="rounded=0;orthogonalLoop=1;jettySize=auto;html=1;" edge="1" parent="1" source="JP8kJ2886w8WSLI2o2VG-104" target="JP8kJ2886w8WSLI2o2VG-105">
          <mxGeometry relative="1" as="geometry" />
        </mxCell>
        <mxCell id="JP8kJ2886w8WSLI2o2VG-108" style="rounded=0;orthogonalLoop=1;jettySize=auto;html=1;" edge="1" parent="1" source="JP8kJ2886w8WSLI2o2VG-104" target="JP8kJ2886w8WSLI2o2VG-106">
          <mxGeometry relative="1" as="geometry" />
        </mxCell>
        <mxCell id="JP8kJ2886w8WSLI2o2VG-104" value="Dataset NHANES" style="rounded=1;whiteSpace=wrap;html=1;" vertex="1" parent="1">
          <mxGeometry x="1548.87" y="2360" width="120" height="60" as="geometry" />
        </mxCell>
        <mxCell id="JP8kJ2886w8WSLI2o2VG-105" value="Subset Pelatihan" style="rounded=1;whiteSpace=wrap;html=1;" vertex="1" parent="1">
          <mxGeometry x="1423.87" y="2470" width="120" height="60" as="geometry" />
        </mxCell>
        <mxCell id="JP8kJ2886w8WSLI2o2VG-106" value="Subset Validasi" style="rounded=1;whiteSpace=wrap;html=1;" vertex="1" parent="1">
          <mxGeometry x="1660.12" y="2470" width="120" height="60" as="geometry" />
        </mxCell>
        <mxCell id="JP8kJ2886w8WSLI2o2VG-112" value="Standard Scaler" style="whiteSpace=wrap;html=1;aspect=fixed;" vertex="1" parent="1">
          <mxGeometry x="1563.87" y="2560" width="80" height="80" as="geometry" />
        </mxCell>
        <mxCell id="JP8kJ2886w8WSLI2o2VG-113" value="SMOTE-NC" style="whiteSpace=wrap;html=1;aspect=fixed;" vertex="1" parent="1">
          <mxGeometry x="1563.87" y="2660" width="80" height="80" as="geometry" />
        </mxCell>
        <mxCell id="JP8kJ2886w8WSLI2o2VG-114" value="" style="endArrow=classic;html=1;rounded=0;" edge="1" parent="1" source="JP8kJ2886w8WSLI2o2VG-105" target="JP8kJ2886w8WSLI2o2VG-115">
          <mxGeometry width="50" height="50" relative="1" as="geometry">
            <mxPoint x="1467.62" y="2600" as="sourcePoint" />
            <mxPoint x="1517.62" y="2550" as="targetPoint" />
          </mxGeometry>
        </mxCell>
        <mxCell id="JP8kJ2886w8WSLI2o2VG-115" value="Subset Pelatihan yang telah diproses" style="rounded=1;whiteSpace=wrap;html=1;" vertex="1" parent="1">
          <mxGeometry x="1423.87" y="2773" width="120" height="60" as="geometry" />
        </mxCell>
        <mxCell id="JP8kJ2886w8WSLI2o2VG-117" value="" style="endArrow=classic;html=1;rounded=0;" edge="1" parent="1">
          <mxGeometry width="50" height="50" relative="1" as="geometry">
            <mxPoint x="1487.62" y="2590" as="sourcePoint" />
            <mxPoint x="1557.62" y="2590" as="targetPoint" />
          </mxGeometry>
        </mxCell>
        <mxCell id="JP8kJ2886w8WSLI2o2VG-118" value="Fit" style="edgeLabel;html=1;align=center;verticalAlign=middle;resizable=0;points=[];" connectable="0" vertex="1" parent="JP8kJ2886w8WSLI2o2VG-117">
          <mxGeometry x="-0.0095" y="2" relative="1" as="geometry">
            <mxPoint as="offset" />
          </mxGeometry>
        </mxCell>
        <mxCell id="JP8kJ2886w8WSLI2o2VG-119" value="" style="endArrow=classic;html=1;rounded=0;" edge="1" parent="1">
          <mxGeometry width="50" height="50" relative="1" as="geometry">
            <mxPoint x="1557.62" y="2620" as="sourcePoint" />
            <mxPoint x="1487.62" y="2620" as="targetPoint" />
          </mxGeometry>
        </mxCell>
        <mxCell id="JP8kJ2886w8WSLI2o2VG-120" value="Transform" style="edgeLabel;html=1;align=center;verticalAlign=middle;resizable=0;points=[];" connectable="0" vertex="1" parent="JP8kJ2886w8WSLI2o2VG-119">
          <mxGeometry x="0.0667" y="1" relative="1" as="geometry">
            <mxPoint x="3" as="offset" />
          </mxGeometry>
        </mxCell>
        <mxCell id="JP8kJ2886w8WSLI2o2VG-121" value="" style="endArrow=classic;html=1;rounded=0;" edge="1" parent="1" target="JP8kJ2886w8WSLI2o2VG-122">
          <mxGeometry width="50" height="50" relative="1" as="geometry">
            <mxPoint x="1719.87" y="2530" as="sourcePoint" />
            <mxPoint x="1753.87" y="2550" as="targetPoint" />
          </mxGeometry>
        </mxCell>
        <mxCell id="JP8kJ2886w8WSLI2o2VG-122" value="Subset Validasi yang telah diproses" style="rounded=1;whiteSpace=wrap;html=1;" vertex="1" parent="1">
          <mxGeometry x="1660.12" y="2773" width="120" height="60" as="geometry" />
        </mxCell>
        <mxCell id="JP8kJ2886w8WSLI2o2VG-123" value="" style="endArrow=classic;html=1;rounded=0;" edge="1" parent="1">
          <mxGeometry width="50" height="50" relative="1" as="geometry">
            <mxPoint x="1647.62" y="2620" as="sourcePoint" />
            <mxPoint x="1717.62" y="2620" as="targetPoint" />
          </mxGeometry>
        </mxCell>
        <mxCell id="JP8kJ2886w8WSLI2o2VG-124" value="Transform" style="edgeLabel;html=1;align=center;verticalAlign=middle;resizable=0;points=[];" connectable="0" vertex="1" parent="JP8kJ2886w8WSLI2o2VG-123">
          <mxGeometry x="-0.0952" y="-3" relative="1" as="geometry">
            <mxPoint as="offset" />
          </mxGeometry>
        </mxCell>
        <mxCell id="JP8kJ2886w8WSLI2o2VG-125" value="" style="endArrow=classic;html=1;rounded=0;" edge="1" parent="1">
          <mxGeometry width="50" height="50" relative="1" as="geometry">
            <mxPoint x="1488.87" y="2686.5" as="sourcePoint" />
            <mxPoint x="1558.87" y="2686.5" as="targetPoint" />
          </mxGeometry>
        </mxCell>
        <mxCell id="JP8kJ2886w8WSLI2o2VG-126" value="Fit" style="edgeLabel;html=1;align=center;verticalAlign=middle;resizable=0;points=[];" connectable="0" vertex="1" parent="JP8kJ2886w8WSLI2o2VG-125">
          <mxGeometry x="-0.0095" y="2" relative="1" as="geometry">
            <mxPoint as="offset" />
          </mxGeometry>
        </mxCell>
        <mxCell id="JP8kJ2886w8WSLI2o2VG-127" value="" style="endArrow=classic;html=1;rounded=0;" edge="1" parent="1">
          <mxGeometry width="50" height="50" relative="1" as="geometry">
            <mxPoint x="1558.87" y="2716.5" as="sourcePoint" />
            <mxPoint x="1488.87" y="2716.5" as="targetPoint" />
          </mxGeometry>
        </mxCell>
        <mxCell id="JP8kJ2886w8WSLI2o2VG-128" value="Transform" style="edgeLabel;html=1;align=center;verticalAlign=middle;resizable=0;points=[];" connectable="0" vertex="1" parent="JP8kJ2886w8WSLI2o2VG-127">
          <mxGeometry x="0.0667" y="1" relative="1" as="geometry">
            <mxPoint x="3" as="offset" />
          </mxGeometry>
        </mxCell>
        <mxCell id="JP8kJ2886w8WSLI2o2VG-162" style="edgeStyle=orthogonalEdgeStyle;rounded=0;orthogonalLoop=1;jettySize=auto;html=1;" edge="1" parent="1" source="JP8kJ2886w8WSLI2o2VG-130" target="JP8kJ2886w8WSLI2o2VG-131">
          <mxGeometry relative="1" as="geometry">
            <Array as="points">
              <mxPoint x="3470" y="2389.5" />
              <mxPoint x="3170" y="2389.5" />
            </Array>
          </mxGeometry>
        </mxCell>
        <mxCell id="JP8kJ2886w8WSLI2o2VG-163" style="edgeStyle=orthogonalEdgeStyle;rounded=0;orthogonalLoop=1;jettySize=auto;html=1;" edge="1" parent="1" source="JP8kJ2886w8WSLI2o2VG-130">
          <mxGeometry relative="1" as="geometry">
            <mxPoint x="3320" y="2409.5" as="targetPoint" />
            <Array as="points">
              <mxPoint x="3470" y="2389.5" />
              <mxPoint x="3320" y="2389.5" />
            </Array>
          </mxGeometry>
        </mxCell>
        <mxCell id="JP8kJ2886w8WSLI2o2VG-164" style="edgeStyle=orthogonalEdgeStyle;rounded=0;orthogonalLoop=1;jettySize=auto;html=1;" edge="1" parent="1" source="JP8kJ2886w8WSLI2o2VG-130">
          <mxGeometry relative="1" as="geometry">
            <mxPoint x="3470" y="2409.5" as="targetPoint" />
            <Array as="points">
              <mxPoint x="3470" y="2369.5" />
              <mxPoint x="3470" y="2369.5" />
            </Array>
          </mxGeometry>
        </mxCell>
        <mxCell id="JP8kJ2886w8WSLI2o2VG-165" style="edgeStyle=orthogonalEdgeStyle;rounded=0;orthogonalLoop=1;jettySize=auto;html=1;" edge="1" parent="1" source="JP8kJ2886w8WSLI2o2VG-130">
          <mxGeometry relative="1" as="geometry">
            <mxPoint x="3620" y="2409.5" as="targetPoint" />
            <Array as="points">
              <mxPoint x="3470" y="2389.5" />
              <mxPoint x="3620" y="2389.5" />
            </Array>
          </mxGeometry>
        </mxCell>
        <mxCell id="JP8kJ2886w8WSLI2o2VG-166" style="edgeStyle=orthogonalEdgeStyle;rounded=0;orthogonalLoop=1;jettySize=auto;html=1;" edge="1" parent="1" source="JP8kJ2886w8WSLI2o2VG-130">
          <mxGeometry relative="1" as="geometry">
            <mxPoint x="3770" y="2409.5" as="targetPoint" />
            <Array as="points">
              <mxPoint x="3470" y="2389.5" />
              <mxPoint x="3770" y="2389.5" />
            </Array>
          </mxGeometry>
        </mxCell>
        <mxCell id="JP8kJ2886w8WSLI2o2VG-130" value="Dataset NHANES" style="rounded=0;whiteSpace=wrap;html=1;" vertex="1" parent="1">
          <mxGeometry x="3410" y="2279.5" width="120" height="60" as="geometry" />
        </mxCell>
        <mxCell id="JP8kJ2886w8WSLI2o2VG-131" value="Subset Validasi" style="rounded=0;whiteSpace=wrap;html=1;fillColor=#FFFF99;" vertex="1" parent="1">
          <mxGeometry x="3120" y="2409.5" width="100" height="100" as="geometry" />
        </mxCell>
        <mxCell id="JP8kJ2886w8WSLI2o2VG-132" value="" style="rounded=0;whiteSpace=wrap;html=1;fillColor=#CCCCCC;" vertex="1" parent="1">
          <mxGeometry x="3120" y="2509.93" width="100" height="100" as="geometry" />
        </mxCell>
        <mxCell id="JP8kJ2886w8WSLI2o2VG-167" style="edgeStyle=orthogonalEdgeStyle;rounded=0;orthogonalLoop=1;jettySize=auto;html=1;" edge="1" parent="1" target="JP8kJ2886w8WSLI2o2VG-156">
          <mxGeometry relative="1" as="geometry">
            <mxPoint x="3175" y="2909.5" as="sourcePoint" />
            <Array as="points">
              <mxPoint x="3175" y="2957.5" />
              <mxPoint x="3175" y="2957.5" />
            </Array>
          </mxGeometry>
        </mxCell>
        <mxCell id="JP8kJ2886w8WSLI2o2VG-178" style="edgeStyle=orthogonalEdgeStyle;rounded=0;orthogonalLoop=1;jettySize=auto;html=1;" edge="1" parent="1" target="JP8kJ2886w8WSLI2o2VG-156">
          <mxGeometry relative="1" as="geometry">
            <mxPoint x="3325" y="2907.5" as="sourcePoint" />
            <Array as="points">
              <mxPoint x="3325" y="2957.5" />
              <mxPoint x="3325" y="2957.5" />
            </Array>
          </mxGeometry>
        </mxCell>
        <mxCell id="JP8kJ2886w8WSLI2o2VG-180" style="edgeStyle=orthogonalEdgeStyle;rounded=0;orthogonalLoop=1;jettySize=auto;html=1;" edge="1" parent="1" target="JP8kJ2886w8WSLI2o2VG-156">
          <mxGeometry relative="1" as="geometry">
            <mxPoint x="3470" y="2907.5" as="sourcePoint" />
            <Array as="points">
              <mxPoint x="3470" y="2927.5" />
              <mxPoint x="3470" y="2927.5" />
            </Array>
          </mxGeometry>
        </mxCell>
        <mxCell id="JP8kJ2886w8WSLI2o2VG-182" style="edgeStyle=orthogonalEdgeStyle;rounded=0;orthogonalLoop=1;jettySize=auto;html=1;" edge="1" parent="1" target="JP8kJ2886w8WSLI2o2VG-156">
          <mxGeometry relative="1" as="geometry">
            <mxPoint x="3625" y="2907.5" as="sourcePoint" />
            <Array as="points">
              <mxPoint x="3625" y="2957.5" />
              <mxPoint x="3625" y="2957.5" />
            </Array>
          </mxGeometry>
        </mxCell>
        <mxCell id="JP8kJ2886w8WSLI2o2VG-185" style="edgeStyle=orthogonalEdgeStyle;rounded=0;orthogonalLoop=1;jettySize=auto;html=1;" edge="1" parent="1" target="JP8kJ2886w8WSLI2o2VG-156">
          <mxGeometry relative="1" as="geometry">
            <mxPoint x="3775" y="2907.5" as="sourcePoint" />
            <Array as="points">
              <mxPoint x="3775" y="2967.5" />
              <mxPoint x="3775" y="2967.5" />
            </Array>
          </mxGeometry>
        </mxCell>
        <mxCell id="JP8kJ2886w8WSLI2o2VG-177" style="edgeStyle=orthogonalEdgeStyle;rounded=0;orthogonalLoop=1;jettySize=auto;html=1;" edge="1" parent="1" source="JP8kJ2886w8WSLI2o2VG-156" target="JP8kJ2886w8WSLI2o2VG-171">
          <mxGeometry relative="1" as="geometry">
            <Array as="points">
              <mxPoint x="3175" y="3057.5" />
              <mxPoint x="3175" y="3057.5" />
            </Array>
          </mxGeometry>
        </mxCell>
        <mxCell id="JP8kJ2886w8WSLI2o2VG-179" style="edgeStyle=orthogonalEdgeStyle;rounded=0;orthogonalLoop=1;jettySize=auto;html=1;" edge="1" parent="1" source="JP8kJ2886w8WSLI2o2VG-156" target="JP8kJ2886w8WSLI2o2VG-172">
          <mxGeometry relative="1" as="geometry">
            <Array as="points">
              <mxPoint x="3325" y="3047.5" />
              <mxPoint x="3325" y="3047.5" />
            </Array>
          </mxGeometry>
        </mxCell>
        <mxCell id="JP8kJ2886w8WSLI2o2VG-181" style="edgeStyle=orthogonalEdgeStyle;rounded=0;orthogonalLoop=1;jettySize=auto;html=1;" edge="1" parent="1" source="JP8kJ2886w8WSLI2o2VG-156" target="JP8kJ2886w8WSLI2o2VG-173">
          <mxGeometry relative="1" as="geometry">
            <Array as="points">
              <mxPoint x="3470" y="3057.5" />
              <mxPoint x="3470" y="3057.5" />
            </Array>
          </mxGeometry>
        </mxCell>
        <mxCell id="JP8kJ2886w8WSLI2o2VG-184" style="edgeStyle=orthogonalEdgeStyle;rounded=0;orthogonalLoop=1;jettySize=auto;html=1;" edge="1" parent="1" source="JP8kJ2886w8WSLI2o2VG-156" target="JP8kJ2886w8WSLI2o2VG-174">
          <mxGeometry relative="1" as="geometry">
            <Array as="points">
              <mxPoint x="3625" y="3047.5" />
              <mxPoint x="3625" y="3047.5" />
            </Array>
          </mxGeometry>
        </mxCell>
        <mxCell id="JP8kJ2886w8WSLI2o2VG-186" style="edgeStyle=orthogonalEdgeStyle;rounded=0;orthogonalLoop=1;jettySize=auto;html=1;" edge="1" parent="1" source="JP8kJ2886w8WSLI2o2VG-156" target="JP8kJ2886w8WSLI2o2VG-175">
          <mxGeometry relative="1" as="geometry">
            <Array as="points">
              <mxPoint x="3775" y="3062.5" />
              <mxPoint x="3775" y="3062.5" />
            </Array>
          </mxGeometry>
        </mxCell>
        <mxCell id="JP8kJ2886w8WSLI2o2VG-156" value="&lt;span style=&quot;text-align: left;&quot;&gt;Preparasi Data Untuk&amp;nbsp;&lt;/span&gt;&lt;i style=&quot;text-align: left;&quot;&gt;Input&amp;nbsp;&lt;/i&gt;&lt;span style=&quot;text-align: left;&quot;&gt;Model&lt;/span&gt;" style="rounded=1;whiteSpace=wrap;html=1;" vertex="1" parent="1">
          <mxGeometry x="3115" y="2977.5" width="710" height="60" as="geometry" />
        </mxCell>
        <mxCell id="JP8kJ2886w8WSLI2o2VG-157" value="&lt;font style=&quot;font-size: 16px;&quot;&gt;Fold #1&lt;/font&gt;" style="text;html=1;align=center;verticalAlign=middle;whiteSpace=wrap;rounded=0;" vertex="1" parent="1">
          <mxGeometry x="3145" y="3177.5" width="60" height="30" as="geometry" />
        </mxCell>
        <mxCell id="JP8kJ2886w8WSLI2o2VG-158" value="&lt;font style=&quot;font-size: 16px;&quot;&gt;Fold #2&lt;/font&gt;" style="text;html=1;align=center;verticalAlign=middle;whiteSpace=wrap;rounded=0;" vertex="1" parent="1">
          <mxGeometry x="3295" y="3177.5" width="60" height="30" as="geometry" />
        </mxCell>
        <mxCell id="JP8kJ2886w8WSLI2o2VG-159" value="&lt;font style=&quot;font-size: 16px;&quot;&gt;Fold #3&lt;/font&gt;" style="text;html=1;align=center;verticalAlign=middle;whiteSpace=wrap;rounded=0;" vertex="1" parent="1">
          <mxGeometry x="3445" y="3177.5" width="60" height="30" as="geometry" />
        </mxCell>
        <mxCell id="JP8kJ2886w8WSLI2o2VG-160" value="&lt;font style=&quot;font-size: 16px;&quot;&gt;Fold #4&lt;/font&gt;" style="text;html=1;align=center;verticalAlign=middle;whiteSpace=wrap;rounded=0;" vertex="1" parent="1">
          <mxGeometry x="3595" y="3177.5" width="60" height="30" as="geometry" />
        </mxCell>
        <mxCell id="JP8kJ2886w8WSLI2o2VG-161" value="&lt;font style=&quot;font-size: 16px;&quot;&gt;Fold #5&lt;/font&gt;" style="text;html=1;align=center;verticalAlign=middle;whiteSpace=wrap;rounded=0;" vertex="1" parent="1">
          <mxGeometry x="3745" y="3177.5" width="60" height="30" as="geometry" />
        </mxCell>
        <mxCell id="JP8kJ2886w8WSLI2o2VG-171" value="" style="rounded=0;whiteSpace=wrap;html=1;fillColor=#dae8fc;strokeColor=#6c8ebf;" vertex="1" parent="1">
          <mxGeometry x="3125" y="3087.5" width="100" height="70" as="geometry" />
        </mxCell>
        <mxCell id="JP8kJ2886w8WSLI2o2VG-172" value="" style="rounded=0;whiteSpace=wrap;html=1;fillColor=#dae8fc;strokeColor=#6c8ebf;" vertex="1" parent="1">
          <mxGeometry x="3275" y="3087.5" width="100" height="70" as="geometry" />
        </mxCell>
        <mxCell id="JP8kJ2886w8WSLI2o2VG-173" value="" style="rounded=0;whiteSpace=wrap;html=1;fillColor=#dae8fc;strokeColor=#6c8ebf;" vertex="1" parent="1">
          <mxGeometry x="3420" y="3087.5" width="100" height="70" as="geometry" />
        </mxCell>
        <mxCell id="JP8kJ2886w8WSLI2o2VG-174" value="" style="rounded=0;whiteSpace=wrap;html=1;fillColor=#dae8fc;strokeColor=#6c8ebf;" vertex="1" parent="1">
          <mxGeometry x="3575" y="3087.5" width="100" height="70" as="geometry" />
        </mxCell>
        <mxCell id="JP8kJ2886w8WSLI2o2VG-175" value="" style="rounded=0;whiteSpace=wrap;html=1;fillColor=#dae8fc;strokeColor=#6c8ebf;" vertex="1" parent="1">
          <mxGeometry x="3725" y="3087.5" width="100" height="70" as="geometry" />
        </mxCell>
        <mxCell id="JP8kJ2886w8WSLI2o2VG-189" value="K-Fold Cross Validation" style="text;html=1;align=center;verticalAlign=middle;whiteSpace=wrap;rounded=0;" vertex="1" parent="1">
          <mxGeometry x="3140" y="2249.5" width="130" height="30" as="geometry" />
        </mxCell>
        <mxCell id="JP8kJ2886w8WSLI2o2VG-190" value="" style="rounded=0;whiteSpace=wrap;html=1;fillColor=#CCCCCC;" vertex="1" parent="1">
          <mxGeometry x="3120" y="2609.93" width="100" height="100" as="geometry" />
        </mxCell>
        <mxCell id="JP8kJ2886w8WSLI2o2VG-191" value="" style="rounded=0;whiteSpace=wrap;html=1;fillColor=#CCCCCC;" vertex="1" parent="1">
          <mxGeometry x="3120" y="2708.5" width="100" height="100" as="geometry" />
        </mxCell>
        <mxCell id="JP8kJ2886w8WSLI2o2VG-192" value="" style="rounded=0;whiteSpace=wrap;html=1;fillColor=#CCCCCC;" vertex="1" parent="1">
          <mxGeometry x="3120" y="2807.5" width="100" height="100" as="geometry" />
        </mxCell>
        <mxCell id="JP8kJ2886w8WSLI2o2VG-195" value="Subset Validasi" style="rounded=0;whiteSpace=wrap;html=1;fillColor=#FFFF99;" vertex="1" parent="1">
          <mxGeometry x="3270" y="2509.93" width="100" height="100" as="geometry" />
        </mxCell>
        <mxCell id="JP8kJ2886w8WSLI2o2VG-196" value="" style="rounded=0;whiteSpace=wrap;html=1;fillColor=#CCCCCC;" vertex="1" parent="1">
          <mxGeometry x="3270" y="2609.93" width="100" height="100" as="geometry" />
        </mxCell>
        <mxCell id="JP8kJ2886w8WSLI2o2VG-197" value="" style="rounded=0;whiteSpace=wrap;html=1;fillColor=#CCCCCC;" vertex="1" parent="1">
          <mxGeometry x="3270" y="2708.5" width="100" height="100" as="geometry" />
        </mxCell>
        <mxCell id="JP8kJ2886w8WSLI2o2VG-198" value="" style="rounded=0;whiteSpace=wrap;html=1;fillColor=#CCCCCC;" vertex="1" parent="1">
          <mxGeometry x="3270" y="2807.5" width="100" height="100" as="geometry" />
        </mxCell>
        <mxCell id="JP8kJ2886w8WSLI2o2VG-201" value="" style="rounded=0;whiteSpace=wrap;html=1;fillColor=#CCCCCC;" vertex="1" parent="1">
          <mxGeometry x="3420" y="2509.93" width="100" height="100" as="geometry" />
        </mxCell>
        <mxCell id="JP8kJ2886w8WSLI2o2VG-202" value="Subset Validasi" style="rounded=0;whiteSpace=wrap;html=1;fillColor=#FFFF99;" vertex="1" parent="1">
          <mxGeometry x="3420" y="2609.93" width="100" height="100" as="geometry" />
        </mxCell>
        <mxCell id="JP8kJ2886w8WSLI2o2VG-203" value="" style="rounded=0;whiteSpace=wrap;html=1;fillColor=#CCCCCC;" vertex="1" parent="1">
          <mxGeometry x="3420" y="2708.5" width="100" height="100" as="geometry" />
        </mxCell>
        <mxCell id="JP8kJ2886w8WSLI2o2VG-204" value="" style="rounded=0;whiteSpace=wrap;html=1;fillColor=#CCCCCC;" vertex="1" parent="1">
          <mxGeometry x="3420" y="2807.5" width="100" height="100" as="geometry" />
        </mxCell>
        <mxCell id="JP8kJ2886w8WSLI2o2VG-207" value="" style="rounded=0;whiteSpace=wrap;html=1;fillColor=#CCCCCC;" vertex="1" parent="1">
          <mxGeometry x="3570" y="2509.93" width="100" height="100" as="geometry" />
        </mxCell>
        <mxCell id="JP8kJ2886w8WSLI2o2VG-208" value="" style="rounded=0;whiteSpace=wrap;html=1;fillColor=#CCCCCC;" vertex="1" parent="1">
          <mxGeometry x="3570" y="2609.93" width="100" height="100" as="geometry" />
        </mxCell>
        <mxCell id="JP8kJ2886w8WSLI2o2VG-209" value="Subset Validasi" style="rounded=0;whiteSpace=wrap;html=1;fillColor=#FFFF99;" vertex="1" parent="1">
          <mxGeometry x="3570" y="2708.5" width="100" height="100" as="geometry" />
        </mxCell>
        <mxCell id="JP8kJ2886w8WSLI2o2VG-210" value="" style="rounded=0;whiteSpace=wrap;html=1;fillColor=#CCCCCC;" vertex="1" parent="1">
          <mxGeometry x="3570" y="2807.5" width="100" height="100" as="geometry" />
        </mxCell>
        <mxCell id="JP8kJ2886w8WSLI2o2VG-213" value="" style="rounded=0;whiteSpace=wrap;html=1;fillColor=#CCCCCC;" vertex="1" parent="1">
          <mxGeometry x="3720" y="2509.93" width="100" height="100" as="geometry" />
        </mxCell>
        <mxCell id="JP8kJ2886w8WSLI2o2VG-214" value="" style="rounded=0;whiteSpace=wrap;html=1;fillColor=#CCCCCC;" vertex="1" parent="1">
          <mxGeometry x="3720" y="2609.93" width="100" height="100" as="geometry" />
        </mxCell>
        <mxCell id="JP8kJ2886w8WSLI2o2VG-215" value="" style="rounded=0;whiteSpace=wrap;html=1;fillColor=#CCCCCC;" vertex="1" parent="1">
          <mxGeometry x="3720" y="2708.5" width="100" height="100" as="geometry" />
        </mxCell>
        <mxCell id="JP8kJ2886w8WSLI2o2VG-216" value="Subset Validasi" style="rounded=0;whiteSpace=wrap;html=1;fillColor=#FFFF99;" vertex="1" parent="1">
          <mxGeometry x="3720" y="2807.5" width="100" height="100" as="geometry" />
        </mxCell>
        <mxCell id="JP8kJ2886w8WSLI2o2VG-218" value="" style="rounded=0;whiteSpace=wrap;html=1;fillColor=#CCCCCC;" vertex="1" parent="1">
          <mxGeometry x="3270" y="2409.93" width="100" height="100" as="geometry" />
        </mxCell>
        <mxCell id="JP8kJ2886w8WSLI2o2VG-219" value="" style="rounded=0;whiteSpace=wrap;html=1;fillColor=#CCCCCC;" vertex="1" parent="1">
          <mxGeometry x="3420" y="2409.5" width="100" height="100" as="geometry" />
        </mxCell>
        <mxCell id="JP8kJ2886w8WSLI2o2VG-220" value="" style="rounded=0;whiteSpace=wrap;html=1;fillColor=#CCCCCC;" vertex="1" parent="1">
          <mxGeometry x="3570" y="2409.93" width="100" height="100" as="geometry" />
        </mxCell>
        <mxCell id="JP8kJ2886w8WSLI2o2VG-221" value="" style="rounded=0;whiteSpace=wrap;html=1;fillColor=#CCCCCC;" vertex="1" parent="1">
          <mxGeometry x="3720" y="2409.5" width="100" height="100" as="geometry" />
        </mxCell>
        <mxCell id="cvVNV5vTnd0oAV2y7DRz-1" value="" style="rounded=1;whiteSpace=wrap;html=1;" vertex="1" parent="1">
          <mxGeometry x="60" y="2339.5" width="740" height="640.5" as="geometry" />
        </mxCell>
        <mxCell id="gSVBstGjE9nukzaFXjFp-1" value="&lt;span style=&quot;font-size: 24px;&quot;&gt;7 Validasi Sistem&lt;/span&gt;&lt;br&gt;&lt;div&gt;______________________________&lt;span style=&quot;background-color: initial;&quot;&gt;______________________________&lt;/span&gt;&lt;span style=&quot;background-color: initial;&quot;&gt;______________________________&lt;/span&gt;&lt;span style=&quot;background-color: initial;&quot;&gt;______________________________&lt;/span&gt;&lt;/div&gt;" style="text;html=1;align=center;verticalAlign=middle;whiteSpace=wrap;rounded=0;fontStyle=1" vertex="1" parent="1">
          <mxGeometry x="26.25" y="4450" width="810" height="30" as="geometry" />
        </mxCell>
        <mxCell id="gSVBstGjE9nukzaFXjFp-16" style="edgeStyle=orthogonalEdgeStyle;rounded=0;orthogonalLoop=1;jettySize=auto;html=1;" edge="1" parent="1" source="gSVBstGjE9nukzaFXjFp-2" target="gSVBstGjE9nukzaFXjFp-5">
          <mxGeometry relative="1" as="geometry" />
        </mxCell>
        <mxCell id="gSVBstGjE9nukzaFXjFp-2" value="Nama makanan" style="rounded=1;whiteSpace=wrap;html=1;" vertex="1" parent="1">
          <mxGeometry x="472.5" y="4670" width="120" height="60" as="geometry" />
        </mxCell>
        <mxCell id="gSVBstGjE9nukzaFXjFp-15" style="edgeStyle=orthogonalEdgeStyle;rounded=0;orthogonalLoop=1;jettySize=auto;html=1;" edge="1" parent="1" target="gSVBstGjE9nukzaFXjFp-2">
          <mxGeometry relative="1" as="geometry">
            <mxPoint x="436.33333333333326" y="4620" as="sourcePoint" />
            <Array as="points">
              <mxPoint x="436" y="4650" />
              <mxPoint x="533" y="4650" />
            </Array>
          </mxGeometry>
        </mxCell>
        <mxCell id="gSVBstGjE9nukzaFXjFp-19" style="edgeStyle=orthogonalEdgeStyle;rounded=0;orthogonalLoop=1;jettySize=auto;html=1;" edge="1" parent="1" target="gSVBstGjE9nukzaFXjFp-4">
          <mxGeometry relative="1" as="geometry">
            <mxPoint x="436.33333333333326" y="4620" as="sourcePoint" />
            <Array as="points">
              <mxPoint x="436" y="4650" />
              <mxPoint x="320" y="4650" />
            </Array>
          </mxGeometry>
        </mxCell>
        <mxCell id="gSVBstGjE9nukzaFXjFp-21" style="edgeStyle=orthogonalEdgeStyle;rounded=0;orthogonalLoop=1;jettySize=auto;html=1;" edge="1" parent="1" source="gSVBstGjE9nukzaFXjFp-4" target="gSVBstGjE9nukzaFXjFp-20">
          <mxGeometry relative="1" as="geometry">
            <Array as="points">
              <mxPoint x="325" y="5190" />
            </Array>
          </mxGeometry>
        </mxCell>
        <mxCell id="gSVBstGjE9nukzaFXjFp-4" value="Porsi makanan" style="rounded=1;whiteSpace=wrap;html=1;" vertex="1" parent="1">
          <mxGeometry x="265" y="4670" width="120" height="60" as="geometry" />
        </mxCell>
        <mxCell id="gSVBstGjE9nukzaFXjFp-17" style="edgeStyle=orthogonalEdgeStyle;rounded=0;orthogonalLoop=1;jettySize=auto;html=1;" edge="1" parent="1" source="gSVBstGjE9nukzaFXjFp-5" target="gSVBstGjE9nukzaFXjFp-8">
          <mxGeometry relative="1" as="geometry" />
        </mxCell>
        <mxCell id="gSVBstGjE9nukzaFXjFp-5" value="Translate nama makanan&#xa;id        en" style="shape=image;verticalLabelPosition=bottom;labelBackgroundColor=default;verticalAlign=top;aspect=fixed;imageAspect=0;image=https://cdn.icon-icons.com/icons2/2248/PNG/512/google_translate_icon_138517.png;" vertex="1" parent="1">
          <mxGeometry x="497" y="4790" width="71" height="71" as="geometry" />
        </mxCell>
        <mxCell id="gSVBstGjE9nukzaFXjFp-18" style="edgeStyle=orthogonalEdgeStyle;rounded=0;orthogonalLoop=1;jettySize=auto;html=1;" edge="1" parent="1" source="gSVBstGjE9nukzaFXjFp-8" target="gSVBstGjE9nukzaFXjFp-14">
          <mxGeometry relative="1" as="geometry" />
        </mxCell>
        <mxCell id="gSVBstGjE9nukzaFXjFp-8" value="Cari nama makanan (inggris) pada situs Food Data Central" style="rounded=1;whiteSpace=wrap;html=1;" vertex="1" parent="1">
          <mxGeometry x="472.5" y="4950" width="120" height="60" as="geometry" />
        </mxCell>
        <mxCell id="gSVBstGjE9nukzaFXjFp-13" value="" style="endArrow=classic;html=1;rounded=0;" edge="1" parent="1">
          <mxGeometry width="50" height="50" relative="1" as="geometry">
            <mxPoint x="521.5" y="4889" as="sourcePoint" />
            <mxPoint x="541.5" y="4889" as="targetPoint" />
          </mxGeometry>
        </mxCell>
        <mxCell id="gSVBstGjE9nukzaFXjFp-22" style="edgeStyle=orthogonalEdgeStyle;rounded=0;orthogonalLoop=1;jettySize=auto;html=1;" edge="1" parent="1" source="gSVBstGjE9nukzaFXjFp-14" target="gSVBstGjE9nukzaFXjFp-20">
          <mxGeometry relative="1" as="geometry">
            <Array as="points">
              <mxPoint x="533" y="5190" />
            </Array>
          </mxGeometry>
        </mxCell>
        <mxCell id="gSVBstGjE9nukzaFXjFp-14" value="Ambil data detail nutrisi" style="rounded=1;whiteSpace=wrap;html=1;" vertex="1" parent="1">
          <mxGeometry x="472.5" y="5060" width="120" height="60" as="geometry" />
        </mxCell>
        <mxCell id="gSVBstGjE9nukzaFXjFp-20" value="Sesuaikan data nutrisi dengan porsi" style="rounded=1;whiteSpace=wrap;html=1;" vertex="1" parent="1">
          <mxGeometry x="371.25" y="5160" width="120" height="60" as="geometry" />
        </mxCell>
        <mxCell id="gSVBstGjE9nukzaFXjFp-23" value="Data makanan" style="rounded=1;whiteSpace=wrap;html=1;" vertex="1" parent="1">
          <mxGeometry x="377" y="4560" width="120" height="60" as="geometry" />
        </mxCell>
        <mxCell id="gSVBstGjE9nukzaFXjFp-27" style="edgeStyle=orthogonalEdgeStyle;rounded=0;orthogonalLoop=1;jettySize=auto;html=1;" edge="1" parent="1" source="gSVBstGjE9nukzaFXjFp-24" target="gSVBstGjE9nukzaFXjFp-26">
          <mxGeometry relative="1" as="geometry" />
        </mxCell>
        <mxCell id="gSVBstGjE9nukzaFXjFp-24" value="Data Pulse-Wise" style="shape=cylinder3;whiteSpace=wrap;html=1;boundedLbl=1;backgroundOutline=1;size=15;" vertex="1" parent="1">
          <mxGeometry x="108.75" y="4840" width="72.5" height="90" as="geometry" />
        </mxCell>
        <mxCell id="gSVBstGjE9nukzaFXjFp-25" value="Total nutrisi" style="rounded=1;whiteSpace=wrap;html=1;" vertex="1" parent="1">
          <mxGeometry x="686.25" y="4855" width="120" height="60" as="geometry" />
        </mxCell>
        <mxCell id="gSVBstGjE9nukzaFXjFp-29" value="Pra-pemrosesan data &lt;i&gt;dietary&lt;/i&gt;" style="text;html=1;align=center;verticalAlign=middle;whiteSpace=wrap;rounded=0;" vertex="1" parent="1">
          <mxGeometry x="245" y="4530" width="95" height="30" as="geometry" />
        </mxCell>
        <mxCell id="gSVBstGjE9nukzaFXjFp-37" style="edgeStyle=orthogonalEdgeStyle;rounded=0;orthogonalLoop=1;jettySize=auto;html=1;" edge="1" parent="1" target="gSVBstGjE9nukzaFXjFp-33">
          <mxGeometry relative="1" as="geometry">
            <mxPoint x="1100" y="4810" as="sourcePoint" />
            <Array as="points">
              <mxPoint x="1100" y="4810" />
              <mxPoint x="1100" y="4810" />
            </Array>
          </mxGeometry>
        </mxCell>
        <mxCell id="gSVBstGjE9nukzaFXjFp-30" value="Actor" style="shape=umlActor;verticalLabelPosition=bottom;verticalAlign=top;html=1;outlineConnect=0;" vertex="1" parent="1">
          <mxGeometry x="1060" y="4780" width="30" height="60" as="geometry" />
        </mxCell>
        <mxCell id="gSVBstGjE9nukzaFXjFp-39" style="edgeStyle=orthogonalEdgeStyle;rounded=0;orthogonalLoop=1;jettySize=auto;html=1;" edge="1" parent="1" source="gSVBstGjE9nukzaFXjFp-33" target="gSVBstGjE9nukzaFXjFp-34">
          <mxGeometry relative="1" as="geometry" />
        </mxCell>
        <mxCell id="gSVBstGjE9nukzaFXjFp-41" value="Data Input" style="edgeLabel;html=1;align=center;verticalAlign=middle;resizable=0;points=[];" connectable="0" vertex="1" parent="gSVBstGjE9nukzaFXjFp-39">
          <mxGeometry x="-0.1137" y="-2" relative="1" as="geometry">
            <mxPoint as="offset" />
          </mxGeometry>
        </mxCell>
        <mxCell id="gSVBstGjE9nukzaFXjFp-33" value="&lt;i&gt;Interface&lt;/i&gt;" style="rounded=0;whiteSpace=wrap;html=1;" vertex="1" parent="1">
          <mxGeometry x="1160" y="4790" width="120" height="60" as="geometry" />
        </mxCell>
        <mxCell id="gSVBstGjE9nukzaFXjFp-42" style="edgeStyle=orthogonalEdgeStyle;rounded=0;orthogonalLoop=1;jettySize=auto;html=1;" edge="1" parent="1" source="gSVBstGjE9nukzaFXjFp-34" target="gSVBstGjE9nukzaFXjFp-35">
          <mxGeometry relative="1" as="geometry" />
        </mxCell>
        <mxCell id="gSVBstGjE9nukzaFXjFp-34" value="Endpoint Prediksi" style="rounded=1;whiteSpace=wrap;html=1;" vertex="1" parent="1">
          <mxGeometry x="1380" y="4790" width="120" height="60" as="geometry" />
        </mxCell>
        <mxCell id="gSVBstGjE9nukzaFXjFp-45" style="edgeStyle=orthogonalEdgeStyle;rounded=0;orthogonalLoop=1;jettySize=auto;html=1;" edge="1" parent="1" source="gSVBstGjE9nukzaFXjFp-35" target="gSVBstGjE9nukzaFXjFp-44">
          <mxGeometry relative="1" as="geometry" />
        </mxCell>
        <mxCell id="gSVBstGjE9nukzaFXjFp-35" value="Fungsi Pra-pemrosesan" style="rounded=1;whiteSpace=wrap;html=1;" vertex="1" parent="1">
          <mxGeometry x="1548.87" y="4790" width="120" height="60" as="geometry" />
        </mxCell>
        <mxCell id="gSVBstGjE9nukzaFXjFp-38" style="edgeStyle=orthogonalEdgeStyle;rounded=0;orthogonalLoop=1;jettySize=auto;html=1;" edge="1" parent="1" source="gSVBstGjE9nukzaFXjFp-33">
          <mxGeometry relative="1" as="geometry">
            <mxPoint x="1101" y="4820" as="targetPoint" />
          </mxGeometry>
        </mxCell>
        <mxCell id="gSVBstGjE9nukzaFXjFp-46" style="edgeStyle=orthogonalEdgeStyle;rounded=0;orthogonalLoop=1;jettySize=auto;html=1;" edge="1" parent="1" source="gSVBstGjE9nukzaFXjFp-44" target="gSVBstGjE9nukzaFXjFp-33">
          <mxGeometry relative="1" as="geometry">
            <Array as="points">
              <mxPoint x="1790" y="4920" />
              <mxPoint x="1220" y="4920" />
            </Array>
          </mxGeometry>
        </mxCell>
        <mxCell id="gSVBstGjE9nukzaFXjFp-47" value="Hasil Prediksi" style="edgeLabel;html=1;align=center;verticalAlign=middle;resizable=0;points=[];" connectable="0" vertex="1" parent="gSVBstGjE9nukzaFXjFp-46">
          <mxGeometry x="-0.0304" y="-1" relative="1" as="geometry">
            <mxPoint x="-235" as="offset" />
          </mxGeometry>
        </mxCell>
        <mxCell id="gSVBstGjE9nukzaFXjFp-44" value="Model prediksi CNN" style="rounded=1;whiteSpace=wrap;html=1;" vertex="1" parent="1">
          <mxGeometry x="1730" y="4790" width="120" height="60" as="geometry" />
        </mxCell>
        <mxCell id="gSVBstGjE9nukzaFXjFp-50" value="Flask Backend" style="text;html=1;align=center;verticalAlign=middle;whiteSpace=wrap;rounded=0;" vertex="1" parent="1">
          <mxGeometry x="1530" y="4710" width="110" height="30" as="geometry" />
        </mxCell>
        <mxCell id="6qeob9FpQTtYeEUNTeNv-2" value="&lt;div&gt;&lt;span style=&quot;font-size: 24px;&quot;&gt;BAB 1, 2, 3&lt;/span&gt;&lt;/div&gt;&lt;div&gt;______________________________&lt;span style=&quot;background-color: initial;&quot;&gt;______________________________&lt;/span&gt;&lt;span style=&quot;background-color: initial;&quot;&gt;______________________________&lt;/span&gt;&lt;span style=&quot;background-color: initial;&quot;&gt;______________________________&lt;/span&gt;&lt;/div&gt;" style="text;html=1;align=center;verticalAlign=middle;whiteSpace=wrap;rounded=0;fontStyle=1" vertex="1" parent="1">
          <mxGeometry x="6.25" y="-1069" width="810" height="30" as="geometry" />
        </mxCell>
        <mxCell id="6qeob9FpQTtYeEUNTeNv-13" style="rounded=0;orthogonalLoop=1;jettySize=auto;html=1;" edge="1" parent="1" source="6qeob9FpQTtYeEUNTeNv-3" target="6qeob9FpQTtYeEUNTeNv-6">
          <mxGeometry relative="1" as="geometry" />
        </mxCell>
        <mxCell id="6qeob9FpQTtYeEUNTeNv-14" style="rounded=0;orthogonalLoop=1;jettySize=auto;html=1;" edge="1" parent="1" source="6qeob9FpQTtYeEUNTeNv-3" target="6qeob9FpQTtYeEUNTeNv-7">
          <mxGeometry relative="1" as="geometry" />
        </mxCell>
        <mxCell id="6qeob9FpQTtYeEUNTeNv-15" style="rounded=0;orthogonalLoop=1;jettySize=auto;html=1;" edge="1" parent="1" source="6qeob9FpQTtYeEUNTeNv-3" target="6qeob9FpQTtYeEUNTeNv-8">
          <mxGeometry relative="1" as="geometry" />
        </mxCell>
        <mxCell id="6qeob9FpQTtYeEUNTeNv-16" style="rounded=0;orthogonalLoop=1;jettySize=auto;html=1;" edge="1" parent="1" source="6qeob9FpQTtYeEUNTeNv-3" target="6qeob9FpQTtYeEUNTeNv-9">
          <mxGeometry relative="1" as="geometry" />
        </mxCell>
        <mxCell id="6qeob9FpQTtYeEUNTeNv-3" value="" style="ellipse;whiteSpace=wrap;html=1;aspect=fixed;fillColor=#99FF99;" vertex="1" parent="1">
          <mxGeometry x="96.25" y="-890" width="80" height="80" as="geometry" />
        </mxCell>
        <mxCell id="6qeob9FpQTtYeEUNTeNv-17" style="rounded=0;orthogonalLoop=1;jettySize=auto;html=1;" edge="1" parent="1" source="6qeob9FpQTtYeEUNTeNv-4" target="6qeob9FpQTtYeEUNTeNv-6">
          <mxGeometry relative="1" as="geometry" />
        </mxCell>
        <mxCell id="6qeob9FpQTtYeEUNTeNv-18" style="rounded=0;orthogonalLoop=1;jettySize=auto;html=1;" edge="1" parent="1" source="6qeob9FpQTtYeEUNTeNv-4" target="6qeob9FpQTtYeEUNTeNv-7">
          <mxGeometry relative="1" as="geometry" />
        </mxCell>
        <mxCell id="6qeob9FpQTtYeEUNTeNv-19" style="rounded=0;orthogonalLoop=1;jettySize=auto;html=1;" edge="1" parent="1" source="6qeob9FpQTtYeEUNTeNv-4" target="6qeob9FpQTtYeEUNTeNv-8">
          <mxGeometry relative="1" as="geometry" />
        </mxCell>
        <mxCell id="6qeob9FpQTtYeEUNTeNv-20" style="rounded=0;orthogonalLoop=1;jettySize=auto;html=1;entryX=0.5;entryY=1;entryDx=0;entryDy=0;" edge="1" parent="1" source="6qeob9FpQTtYeEUNTeNv-4" target="6qeob9FpQTtYeEUNTeNv-9">
          <mxGeometry relative="1" as="geometry" />
        </mxCell>
        <mxCell id="6qeob9FpQTtYeEUNTeNv-4" value="" style="ellipse;whiteSpace=wrap;html=1;aspect=fixed;fillColor=#99FF99;" vertex="1" parent="1">
          <mxGeometry x="96.25" y="-760" width="80" height="80" as="geometry" />
        </mxCell>
        <mxCell id="6qeob9FpQTtYeEUNTeNv-21" style="rounded=0;orthogonalLoop=1;jettySize=auto;html=1;" edge="1" parent="1" source="6qeob9FpQTtYeEUNTeNv-5" target="6qeob9FpQTtYeEUNTeNv-6">
          <mxGeometry relative="1" as="geometry" />
        </mxCell>
        <mxCell id="6qeob9FpQTtYeEUNTeNv-22" style="rounded=0;orthogonalLoop=1;jettySize=auto;html=1;" edge="1" parent="1" source="6qeob9FpQTtYeEUNTeNv-5" target="6qeob9FpQTtYeEUNTeNv-7">
          <mxGeometry relative="1" as="geometry" />
        </mxCell>
        <mxCell id="6qeob9FpQTtYeEUNTeNv-23" style="rounded=0;orthogonalLoop=1;jettySize=auto;html=1;" edge="1" parent="1" source="6qeob9FpQTtYeEUNTeNv-5" target="6qeob9FpQTtYeEUNTeNv-8">
          <mxGeometry relative="1" as="geometry" />
        </mxCell>
        <mxCell id="6qeob9FpQTtYeEUNTeNv-24" style="rounded=0;orthogonalLoop=1;jettySize=auto;html=1;" edge="1" parent="1" source="6qeob9FpQTtYeEUNTeNv-5" target="6qeob9FpQTtYeEUNTeNv-9">
          <mxGeometry relative="1" as="geometry" />
        </mxCell>
        <mxCell id="6qeob9FpQTtYeEUNTeNv-5" value="" style="ellipse;whiteSpace=wrap;html=1;aspect=fixed;fillColor=#99FF99;" vertex="1" parent="1">
          <mxGeometry x="93.75" y="-630" width="80" height="80" as="geometry" />
        </mxCell>
        <mxCell id="6qeob9FpQTtYeEUNTeNv-25" style="rounded=0;orthogonalLoop=1;jettySize=auto;html=1;" edge="1" parent="1" source="6qeob9FpQTtYeEUNTeNv-6" target="6qeob9FpQTtYeEUNTeNv-10">
          <mxGeometry relative="1" as="geometry" />
        </mxCell>
        <mxCell id="6qeob9FpQTtYeEUNTeNv-30" style="rounded=0;orthogonalLoop=1;jettySize=auto;html=1;" edge="1" parent="1" source="6qeob9FpQTtYeEUNTeNv-6" target="6qeob9FpQTtYeEUNTeNv-11">
          <mxGeometry relative="1" as="geometry" />
        </mxCell>
        <mxCell id="6qeob9FpQTtYeEUNTeNv-6" value="" style="ellipse;whiteSpace=wrap;html=1;aspect=fixed;fillColor=#1ba1e2;strokeColor=#006EAF;fontColor=#ffffff;" vertex="1" parent="1">
          <mxGeometry x="280" y="-960" width="80" height="80" as="geometry" />
        </mxCell>
        <mxCell id="6qeob9FpQTtYeEUNTeNv-26" style="rounded=0;orthogonalLoop=1;jettySize=auto;html=1;" edge="1" parent="1" source="6qeob9FpQTtYeEUNTeNv-7" target="6qeob9FpQTtYeEUNTeNv-10">
          <mxGeometry relative="1" as="geometry" />
        </mxCell>
        <mxCell id="6qeob9FpQTtYeEUNTeNv-29" style="rounded=0;orthogonalLoop=1;jettySize=auto;html=1;" edge="1" parent="1" source="6qeob9FpQTtYeEUNTeNv-7" target="6qeob9FpQTtYeEUNTeNv-11">
          <mxGeometry relative="1" as="geometry" />
        </mxCell>
        <mxCell id="6qeob9FpQTtYeEUNTeNv-7" value="" style="ellipse;whiteSpace=wrap;html=1;aspect=fixed;fillColor=#1ba1e2;strokeColor=#006EAF;fontColor=#ffffff;" vertex="1" parent="1">
          <mxGeometry x="280" y="-830" width="80" height="80" as="geometry" />
        </mxCell>
        <mxCell id="6qeob9FpQTtYeEUNTeNv-27" style="rounded=0;orthogonalLoop=1;jettySize=auto;html=1;" edge="1" parent="1" source="6qeob9FpQTtYeEUNTeNv-8" target="6qeob9FpQTtYeEUNTeNv-11">
          <mxGeometry relative="1" as="geometry" />
        </mxCell>
        <mxCell id="6qeob9FpQTtYeEUNTeNv-31" style="rounded=0;orthogonalLoop=1;jettySize=auto;html=1;" edge="1" parent="1" source="6qeob9FpQTtYeEUNTeNv-8" target="6qeob9FpQTtYeEUNTeNv-10">
          <mxGeometry relative="1" as="geometry" />
        </mxCell>
        <mxCell id="6qeob9FpQTtYeEUNTeNv-8" value="" style="ellipse;whiteSpace=wrap;html=1;aspect=fixed;fillColor=#1ba1e2;strokeColor=#006EAF;fontColor=#ffffff;" vertex="1" parent="1">
          <mxGeometry x="277.5" y="-700" width="80" height="80" as="geometry" />
        </mxCell>
        <mxCell id="6qeob9FpQTtYeEUNTeNv-28" style="rounded=0;orthogonalLoop=1;jettySize=auto;html=1;" edge="1" parent="1" source="6qeob9FpQTtYeEUNTeNv-9" target="6qeob9FpQTtYeEUNTeNv-11">
          <mxGeometry relative="1" as="geometry" />
        </mxCell>
        <mxCell id="6qeob9FpQTtYeEUNTeNv-32" style="rounded=0;orthogonalLoop=1;jettySize=auto;html=1;" edge="1" parent="1" source="6qeob9FpQTtYeEUNTeNv-9" target="6qeob9FpQTtYeEUNTeNv-10">
          <mxGeometry relative="1" as="geometry" />
        </mxCell>
        <mxCell id="6qeob9FpQTtYeEUNTeNv-9" value="" style="ellipse;whiteSpace=wrap;html=1;aspect=fixed;fillColor=#1ba1e2;strokeColor=#006EAF;fontColor=#ffffff;" vertex="1" parent="1">
          <mxGeometry x="277.5" y="-580" width="80" height="80" as="geometry" />
        </mxCell>
        <mxCell id="6qeob9FpQTtYeEUNTeNv-10" value="" style="ellipse;whiteSpace=wrap;html=1;aspect=fixed;fillColor=#fa6800;strokeColor=#C73500;fontColor=#000000;" vertex="1" parent="1">
          <mxGeometry x="461.25" y="-830" width="80" height="80" as="geometry" />
        </mxCell>
        <mxCell id="6qeob9FpQTtYeEUNTeNv-11" value="" style="ellipse;whiteSpace=wrap;html=1;aspect=fixed;fillColor=#fa6800;strokeColor=#C73500;fontColor=#000000;" vertex="1" parent="1">
          <mxGeometry x="461.25" y="-700" width="80" height="80" as="geometry" />
        </mxCell>
        <mxCell id="6qeob9FpQTtYeEUNTeNv-33" value="Input" style="text;html=1;align=center;verticalAlign=middle;whiteSpace=wrap;rounded=0;fontStyle=1" vertex="1" parent="1">
          <mxGeometry x="100" y="-935" width="60" height="30" as="geometry" />
        </mxCell>
        <mxCell id="6qeob9FpQTtYeEUNTeNv-34" value="Hidden" style="text;html=1;align=center;verticalAlign=middle;whiteSpace=wrap;rounded=0;fontStyle=1" vertex="1" parent="1">
          <mxGeometry x="288.75" y="-1000" width="60" height="30" as="geometry" />
        </mxCell>
        <mxCell id="6qeob9FpQTtYeEUNTeNv-35" value="Output" style="text;html=1;align=center;verticalAlign=middle;whiteSpace=wrap;rounded=0;fontStyle=1" vertex="1" parent="1">
          <mxGeometry x="466.25" y="-935" width="60" height="30" as="geometry" />
        </mxCell>
        <mxCell id="6qeob9FpQTtYeEUNTeNv-37" value="aw + bx + ey + fz" style="whiteSpace=wrap;html=1;aspect=fixed;" vertex="1" parent="1">
          <mxGeometry x="1175" y="-745" width="80" height="80" as="geometry" />
        </mxCell>
        <mxCell id="6qeob9FpQTtYeEUNTeNv-38" value="bw + cx + fy + gz" style="whiteSpace=wrap;html=1;aspect=fixed;" vertex="1" parent="1">
          <mxGeometry x="1265" y="-745" width="80" height="80" as="geometry" />
        </mxCell>
        <mxCell id="6qeob9FpQTtYeEUNTeNv-39" value="cw + dx + gy + hz" style="whiteSpace=wrap;html=1;aspect=fixed;" vertex="1" parent="1">
          <mxGeometry x="1355" y="-745" width="80" height="80" as="geometry" />
        </mxCell>
        <mxCell id="6qeob9FpQTtYeEUNTeNv-42" value="ew + fx + iy + jz" style="whiteSpace=wrap;html=1;aspect=fixed;" vertex="1" parent="1">
          <mxGeometry x="1175" y="-655" width="80" height="80" as="geometry" />
        </mxCell>
        <mxCell id="6qeob9FpQTtYeEUNTeNv-43" value="fw + gx + jy + kz" style="whiteSpace=wrap;html=1;aspect=fixed;" vertex="1" parent="1">
          <mxGeometry x="1265" y="-655" width="80" height="80" as="geometry" />
        </mxCell>
        <mxCell id="6qeob9FpQTtYeEUNTeNv-44" value="gw + hx + ky + lz" style="whiteSpace=wrap;html=1;aspect=fixed;" vertex="1" parent="1">
          <mxGeometry x="1355" y="-655" width="80" height="80" as="geometry" />
        </mxCell>
        <mxCell id="6qeob9FpQTtYeEUNTeNv-45" value="iw + jx + my + nz" style="whiteSpace=wrap;html=1;aspect=fixed;" vertex="1" parent="1">
          <mxGeometry x="1175" y="-565" width="80" height="80" as="geometry" />
        </mxCell>
        <mxCell id="6qeob9FpQTtYeEUNTeNv-46" value="jw + kx + ny + oz" style="whiteSpace=wrap;html=1;aspect=fixed;" vertex="1" parent="1">
          <mxGeometry x="1265" y="-565" width="80" height="80" as="geometry" />
        </mxCell>
        <mxCell id="6qeob9FpQTtYeEUNTeNv-47" value="kw + lx + oy + pz" style="whiteSpace=wrap;html=1;aspect=fixed;" vertex="1" parent="1">
          <mxGeometry x="1355" y="-565" width="80" height="80" as="geometry" />
        </mxCell>
        <mxCell id="6qeob9FpQTtYeEUNTeNv-48" value="a" style="whiteSpace=wrap;html=1;aspect=fixed;" vertex="1" parent="1">
          <mxGeometry x="980" y="-955" width="30" height="30" as="geometry" />
        </mxCell>
        <mxCell id="6qeob9FpQTtYeEUNTeNv-49" value="b" style="whiteSpace=wrap;html=1;aspect=fixed;" vertex="1" parent="1">
          <mxGeometry x="1020" y="-955" width="30" height="30" as="geometry" />
        </mxCell>
        <mxCell id="6qeob9FpQTtYeEUNTeNv-50" value="c" style="whiteSpace=wrap;html=1;aspect=fixed;" vertex="1" parent="1">
          <mxGeometry x="1060.5" y="-955" width="30" height="30" as="geometry" />
        </mxCell>
        <mxCell id="6qeob9FpQTtYeEUNTeNv-51" value="d" style="whiteSpace=wrap;html=1;aspect=fixed;" vertex="1" parent="1">
          <mxGeometry x="1101" y="-955" width="30" height="30" as="geometry" />
        </mxCell>
        <mxCell id="6qeob9FpQTtYeEUNTeNv-52" value="e" style="whiteSpace=wrap;html=1;aspect=fixed;" vertex="1" parent="1">
          <mxGeometry x="980" y="-915" width="30" height="30" as="geometry" />
        </mxCell>
        <mxCell id="6qeob9FpQTtYeEUNTeNv-53" value="f" style="whiteSpace=wrap;html=1;aspect=fixed;" vertex="1" parent="1">
          <mxGeometry x="1020" y="-915" width="30" height="30" as="geometry" />
        </mxCell>
        <mxCell id="6qeob9FpQTtYeEUNTeNv-54" value="g" style="whiteSpace=wrap;html=1;aspect=fixed;" vertex="1" parent="1">
          <mxGeometry x="1060.5" y="-915" width="30" height="30" as="geometry" />
        </mxCell>
        <mxCell id="6qeob9FpQTtYeEUNTeNv-55" value="h" style="whiteSpace=wrap;html=1;aspect=fixed;" vertex="1" parent="1">
          <mxGeometry x="1101" y="-915" width="30" height="30" as="geometry" />
        </mxCell>
        <mxCell id="6qeob9FpQTtYeEUNTeNv-56" value="i" style="whiteSpace=wrap;html=1;aspect=fixed;" vertex="1" parent="1">
          <mxGeometry x="980" y="-875" width="30" height="30" as="geometry" />
        </mxCell>
        <mxCell id="6qeob9FpQTtYeEUNTeNv-57" value="j" style="whiteSpace=wrap;html=1;aspect=fixed;" vertex="1" parent="1">
          <mxGeometry x="1020" y="-875" width="30" height="30" as="geometry" />
        </mxCell>
        <mxCell id="6qeob9FpQTtYeEUNTeNv-58" value="k" style="whiteSpace=wrap;html=1;aspect=fixed;" vertex="1" parent="1">
          <mxGeometry x="1060.5" y="-875" width="30" height="30" as="geometry" />
        </mxCell>
        <mxCell id="6qeob9FpQTtYeEUNTeNv-59" value="l" style="whiteSpace=wrap;html=1;aspect=fixed;" vertex="1" parent="1">
          <mxGeometry x="1101" y="-875" width="30" height="30" as="geometry" />
        </mxCell>
        <mxCell id="6qeob9FpQTtYeEUNTeNv-60" value="m" style="whiteSpace=wrap;html=1;aspect=fixed;" vertex="1" parent="1">
          <mxGeometry x="980" y="-835" width="30" height="30" as="geometry" />
        </mxCell>
        <mxCell id="6qeob9FpQTtYeEUNTeNv-61" value="n" style="whiteSpace=wrap;html=1;aspect=fixed;" vertex="1" parent="1">
          <mxGeometry x="1020" y="-835" width="30" height="30" as="geometry" />
        </mxCell>
        <mxCell id="6qeob9FpQTtYeEUNTeNv-62" value="o" style="whiteSpace=wrap;html=1;aspect=fixed;" vertex="1" parent="1">
          <mxGeometry x="1060.5" y="-835" width="30" height="30" as="geometry" />
        </mxCell>
        <mxCell id="6qeob9FpQTtYeEUNTeNv-63" value="p" style="whiteSpace=wrap;html=1;aspect=fixed;" vertex="1" parent="1">
          <mxGeometry x="1101" y="-835" width="30" height="30" as="geometry" />
        </mxCell>
        <mxCell id="6qeob9FpQTtYeEUNTeNv-65" value="w" style="whiteSpace=wrap;html=1;aspect=fixed;" vertex="1" parent="1">
          <mxGeometry x="1290" y="-940" width="30" height="30" as="geometry" />
        </mxCell>
        <mxCell id="6qeob9FpQTtYeEUNTeNv-66" value="x" style="whiteSpace=wrap;html=1;aspect=fixed;" vertex="1" parent="1">
          <mxGeometry x="1325" y="-940" width="30" height="30" as="geometry" />
        </mxCell>
        <mxCell id="6qeob9FpQTtYeEUNTeNv-67" value="y" style="whiteSpace=wrap;html=1;aspect=fixed;" vertex="1" parent="1">
          <mxGeometry x="1290" y="-905" width="30" height="30" as="geometry" />
        </mxCell>
        <mxCell id="6qeob9FpQTtYeEUNTeNv-68" value="z" style="whiteSpace=wrap;html=1;aspect=fixed;" vertex="1" parent="1">
          <mxGeometry x="1325" y="-905" width="30" height="30" as="geometry" />
        </mxCell>
        <mxCell id="6qeob9FpQTtYeEUNTeNv-74" value="Data" style="text;html=1;align=center;verticalAlign=middle;whiteSpace=wrap;rounded=0;" vertex="1" parent="1">
          <mxGeometry x="1020" y="-785" width="60" height="30" as="geometry" />
        </mxCell>
        <mxCell id="6qeob9FpQTtYeEUNTeNv-75" value="Kernel" style="text;html=1;align=center;verticalAlign=middle;whiteSpace=wrap;rounded=0;" vertex="1" parent="1">
          <mxGeometry x="1345" y="-855" width="60" height="30" as="geometry" />
        </mxCell>
        <mxCell id="6qeob9FpQTtYeEUNTeNv-99" style="edgeStyle=orthogonalEdgeStyle;rounded=0;orthogonalLoop=1;jettySize=auto;html=1;entryX=0;entryY=0.5;entryDx=0;entryDy=0;" edge="1" parent="1" source="6qeob9FpQTtYeEUNTeNv-77" target="6qeob9FpQTtYeEUNTeNv-94">
          <mxGeometry relative="1" as="geometry" />
        </mxCell>
        <mxCell id="6qeob9FpQTtYeEUNTeNv-100" value="Max Pool 2x2" style="edgeLabel;html=1;align=center;verticalAlign=middle;resizable=0;points=[];" connectable="0" vertex="1" parent="6qeob9FpQTtYeEUNTeNv-99">
          <mxGeometry x="0.0069" y="3" relative="1" as="geometry">
            <mxPoint as="offset" />
          </mxGeometry>
        </mxCell>
        <mxCell id="6qeob9FpQTtYeEUNTeNv-77" value="" style="whiteSpace=wrap;html=1;aspect=fixed;" vertex="1" parent="1">
          <mxGeometry x="1560" y="-970" width="170" height="170" as="geometry" />
        </mxCell>
        <mxCell id="6qeob9FpQTtYeEUNTeNv-78" value="1" style="whiteSpace=wrap;html=1;aspect=fixed;" vertex="1" parent="1">
          <mxGeometry x="1569" y="-961" width="30" height="30" as="geometry" />
        </mxCell>
        <mxCell id="6qeob9FpQTtYeEUNTeNv-79" value="1" style="whiteSpace=wrap;html=1;aspect=fixed;" vertex="1" parent="1">
          <mxGeometry x="1609" y="-961" width="30" height="30" as="geometry" />
        </mxCell>
        <mxCell id="6qeob9FpQTtYeEUNTeNv-80" value="2" style="whiteSpace=wrap;html=1;aspect=fixed;" vertex="1" parent="1">
          <mxGeometry x="1649.5" y="-961" width="30" height="30" as="geometry" />
        </mxCell>
        <mxCell id="6qeob9FpQTtYeEUNTeNv-81" value="4" style="whiteSpace=wrap;html=1;aspect=fixed;" vertex="1" parent="1">
          <mxGeometry x="1690" y="-961" width="30" height="30" as="geometry" />
        </mxCell>
        <mxCell id="6qeob9FpQTtYeEUNTeNv-82" value="5" style="whiteSpace=wrap;html=1;aspect=fixed;" vertex="1" parent="1">
          <mxGeometry x="1569" y="-921" width="30" height="30" as="geometry" />
        </mxCell>
        <mxCell id="6qeob9FpQTtYeEUNTeNv-83" value="6" style="whiteSpace=wrap;html=1;aspect=fixed;" vertex="1" parent="1">
          <mxGeometry x="1609" y="-921" width="30" height="30" as="geometry" />
        </mxCell>
        <mxCell id="6qeob9FpQTtYeEUNTeNv-84" value="7" style="whiteSpace=wrap;html=1;aspect=fixed;" vertex="1" parent="1">
          <mxGeometry x="1649.5" y="-921" width="30" height="30" as="geometry" />
        </mxCell>
        <mxCell id="6qeob9FpQTtYeEUNTeNv-85" value="8" style="whiteSpace=wrap;html=1;aspect=fixed;" vertex="1" parent="1">
          <mxGeometry x="1690" y="-921" width="30" height="30" as="geometry" />
        </mxCell>
        <mxCell id="6qeob9FpQTtYeEUNTeNv-86" value="3" style="whiteSpace=wrap;html=1;aspect=fixed;" vertex="1" parent="1">
          <mxGeometry x="1569" y="-881" width="30" height="30" as="geometry" />
        </mxCell>
        <mxCell id="6qeob9FpQTtYeEUNTeNv-87" value="2" style="whiteSpace=wrap;html=1;aspect=fixed;" vertex="1" parent="1">
          <mxGeometry x="1609" y="-881" width="30" height="30" as="geometry" />
        </mxCell>
        <mxCell id="6qeob9FpQTtYeEUNTeNv-88" value="1" style="whiteSpace=wrap;html=1;aspect=fixed;" vertex="1" parent="1">
          <mxGeometry x="1649.5" y="-881" width="30" height="30" as="geometry" />
        </mxCell>
        <mxCell id="6qeob9FpQTtYeEUNTeNv-89" value="0" style="whiteSpace=wrap;html=1;aspect=fixed;" vertex="1" parent="1">
          <mxGeometry x="1690" y="-881" width="30" height="30" as="geometry" />
        </mxCell>
        <mxCell id="6qeob9FpQTtYeEUNTeNv-90" value="1" style="whiteSpace=wrap;html=1;aspect=fixed;" vertex="1" parent="1">
          <mxGeometry x="1569" y="-841" width="30" height="30" as="geometry" />
        </mxCell>
        <mxCell id="6qeob9FpQTtYeEUNTeNv-91" value="2" style="whiteSpace=wrap;html=1;aspect=fixed;" vertex="1" parent="1">
          <mxGeometry x="1609" y="-841" width="30" height="30" as="geometry" />
        </mxCell>
        <mxCell id="6qeob9FpQTtYeEUNTeNv-92" value="3" style="whiteSpace=wrap;html=1;aspect=fixed;" vertex="1" parent="1">
          <mxGeometry x="1649.5" y="-841" width="30" height="30" as="geometry" />
        </mxCell>
        <mxCell id="6qeob9FpQTtYeEUNTeNv-93" value="4" style="whiteSpace=wrap;html=1;aspect=fixed;" vertex="1" parent="1">
          <mxGeometry x="1690" y="-841" width="30" height="30" as="geometry" />
        </mxCell>
        <mxCell id="6qeob9FpQTtYeEUNTeNv-94" value="" style="whiteSpace=wrap;html=1;aspect=fixed;" vertex="1" parent="1">
          <mxGeometry x="1835" y="-925" width="80" height="80" as="geometry" />
        </mxCell>
        <mxCell id="6qeob9FpQTtYeEUNTeNv-95" value="6" style="whiteSpace=wrap;html=1;aspect=fixed;" vertex="1" parent="1">
          <mxGeometry x="1842" y="-918" width="28" height="28" as="geometry" />
        </mxCell>
        <mxCell id="6qeob9FpQTtYeEUNTeNv-96" value="8" style="whiteSpace=wrap;html=1;aspect=fixed;" vertex="1" parent="1">
          <mxGeometry x="1877" y="-918" width="30" height="30" as="geometry" />
        </mxCell>
        <mxCell id="6qeob9FpQTtYeEUNTeNv-97" value="3" style="whiteSpace=wrap;html=1;aspect=fixed;" vertex="1" parent="1">
          <mxGeometry x="1842" y="-883" width="30" height="30" as="geometry" />
        </mxCell>
        <mxCell id="6qeob9FpQTtYeEUNTeNv-98" value="4" style="whiteSpace=wrap;html=1;aspect=fixed;" vertex="1" parent="1">
          <mxGeometry x="1877" y="-883" width="30" height="30" as="geometry" />
        </mxCell>
      </root>
    </mxGraphModel>
  </diagram>
</mxfile>
